<?xml version="1.0" encoding="utf-8"?>
<!-- Generator: Adobe Illustrator 16.0.0, SVG Export Plug-In . SVG Version: 6.00 Build 0)  -->
<!DOCTYPE svg PUBLIC "-//W3C//DTD SVG 1.1//EN" "http://www.w3.org/Graphics/SVG/1.1/DTD/svg11.dtd">
<svg version="1.1" id="Layer_1" xmlns="http://www.w3.org/2000/svg" xmlns:xlink="http://www.w3.org/1999/xlink" x="0px" y="0px"
	 width="2560px" height="1440px" viewBox="0 0 2560 1440" enable-background="new 0 0 2560 1440" xml:space="preserve">
<g>
	<defs>
		<rect id="SVGID_1_" width="2560" height="1440"/>
	</defs>
	<clipPath id="SVGID_2_">
		<use xlink:href="#SVGID_1_"  overflow="visible"/>
	</clipPath>
	<path clip-path="url(#SVGID_2_)" fill="#FFFFFF" d="M2220.336,264.229h-76.301c-7.316,0-13.247-5.931-13.247-13.247
		c0-3.658,1.484-6.971,3.878-9.369c2.398-2.394,5.711-3.877,9.369-3.877h76.301c7.316,0,13.246-5.931,13.246-13.247
		c0-7.316-5.93-13.243-13.246-13.243h-159.377c-5.852,0-10.597-4.745-10.597-10.597s4.745-10.598,10.597-10.598h39.913
		c1.79,0,3.407-0.726,4.581-1.895c1.169-1.174,1.895-2.795,1.895-4.581c0-3.575-2.899-6.476-6.476-6.476h-223.815
		c-3.575,0-6.477,2.901-6.477,6.476c0,3.576,2.901,6.476,6.477,6.476h70.716c5.852,0,10.597,4.746,10.597,10.598
		c0,2.924-1.185,5.577-3.104,7.492c-1.916,1.92-4.569,3.104-7.493,3.104h-21.289c-3.658,0-6.971,1.48-9.369,3.878
		c-2.394,2.398-3.878,5.707-3.878,9.365c0,7.316,5.931,13.247,13.247,13.247h56.798c7.316,0,13.247,5.93,13.247,13.246
		s-5.931,13.247-13.247,13.247h-56.798c-3.658,0-6.971,1.483-9.369,3.878c-2.394,2.398-3.878,5.71-3.878,9.369
		c0,7.316,5.931,13.242,13.247,13.242h-165.636c-5.04,0-9.602,2.045-12.906,5.346c-3.304,3.301-5.345,7.866-5.345,12.905
		c0,10.08,8.171,18.251,18.251,18.251h273.736c-3.089,0-5.884,1.252-7.908,3.277c-2.025,2.026-3.277,4.82-3.277,7.909
		c0,6.178,5.008,11.186,11.186,11.186h85.019c6.178,0,11.186-5.008,11.186-11.186c0-6.178-5.008-11.186-11.186-11.186h54.145
		c10.079,0,18.25-8.171,18.25-18.251c0-10.079-8.171-18.251-18.25-18.251h46.589c7.316,0,13.246-5.926,13.246-13.242
		C2233.582,270.158,2227.652,264.229,2220.336,264.229 M2110.56,298.21c-1.916,1.919-4.569,3.105-7.493,3.105h-69.071
		c-5.852,0-10.597-4.746-10.597-10.598s4.745-10.597,10.597-10.597h69.071c5.852,0,10.597,4.745,10.597,10.597
		C2113.663,293.642,2112.479,296.295,2110.56,298.21"/>
	<path clip-path="url(#SVGID_2_)" fill="#FFFFFF" d="M924.213,80.271c0,7.316,5.931,13.243,13.247,13.243h46.589
		c-10.079,0-18.251,8.172-18.251,18.251s8.172,18.251,18.251,18.251h54.145c-6.178,0-11.187,5.008-11.187,11.186
		s5.009,11.186,11.187,11.186h85.018c6.178,0,11.186-5.008,11.186-11.186c0-3.089-1.252-5.883-3.277-7.909
		c-2.026-2.025-4.82-3.277-7.909-3.277h273.737c10.079,0,18.251-8.172,18.251-18.251c0-5.04-2.041-9.604-5.347-12.905
		c-3.305-3.301-7.864-5.346-12.904-5.346h-165.636c7.316,0,13.246-5.927,13.246-13.243c0-3.658-1.483-6.971-3.878-9.369
		c-2.397-2.394-5.71-3.878-9.368-3.878h-56.798c-7.316,0-13.247-5.93-13.247-13.246c0-7.315,5.931-13.247,13.247-13.247h56.798
		c7.316,0,13.246-5.93,13.246-13.246c0-3.659-1.483-6.967-3.878-9.365c-2.397-2.399-5.71-3.878-9.368-3.878h-21.289
		c-2.924,0-5.578-1.186-7.493-3.105c-1.919-1.915-3.105-4.569-3.105-7.493c0-5.852,4.746-10.597,10.598-10.597h70.715
		c3.575,0,6.476-2.901,6.476-6.476c0-3.576-2.9-6.476-6.476-6.476h-223.816c-3.575,0-6.476,2.9-6.476,6.476
		c0,1.786,0.726,3.407,1.896,4.58c1.174,1.17,2.791,1.896,4.58,1.896h39.913c5.852,0,10.598,4.745,10.598,10.597
		c0,5.853-4.746,10.598-10.598,10.598H937.46c-7.316,0-13.247,5.926-13.247,13.243c0,7.316,5.931,13.246,13.247,13.246h76.301
		c3.658,0,6.971,1.484,9.369,3.878c2.394,2.398,3.877,5.711,3.877,9.369c0,7.316-5.93,13.246-13.246,13.246H937.46
		C930.144,67.024,924.213,72.956,924.213,80.271 M1044.132,93.515c0-5.852,4.745-10.597,10.597-10.597h69.072
		c5.852,0,10.597,4.745,10.597,10.597s-4.745,10.597-10.597,10.597h-69.072c-2.924,0-5.577-1.185-7.492-3.104
		C1045.317,99.092,1044.132,96.438,1044.132,93.515"/>
	<path clip-path="url(#SVGID_2_)" fill="#FFFFFF" d="M467.582,231.604c0,17.531-14.211,31.742-31.742,31.742H122.007
		c-17.531,0-31.742-14.211-31.742-31.742c0-8.767,3.554-16.701,9.296-22.447c5.745-5.741,13.683-9.295,22.446-9.295h39.345
		c3.295,0,6.274-1.333,8.43-3.492c2.159-2.156,3.492-5.139,3.492-8.43c0-6.583-5.335-11.922-11.922-11.922h-9.5
		c-6.525,0-11.814-5.289-11.814-11.814c0-3.263,1.322-6.216,3.46-8.354c2.138-2.138,5.092-3.461,8.354-3.461h225.219
		c6.525,0,11.814,5.289,11.814,11.815c0,6.525-5.289,11.814-11.814,11.814h-16.152c-3.291,0-6.273,1.337-8.429,3.492
		c-2.16,2.156-3.493,5.139-3.493,8.43c0,6.586,5.336,11.922,11.922,11.922h74.921C453.371,199.861,467.582,214.072,467.582,231.604"
		/>
	<path clip-path="url(#SVGID_2_)" fill="#FFFFFF" d="M646.592,96.445c0,6.005-4.864,10.869-10.869,10.869H468.048
		c-6.006,0-10.87-4.864-10.87-10.869c0-3,1.218-5.717,3.185-7.685c1.967-1.967,4.685-3.184,7.685-3.184h11.456
		c2.054,0,3.907-0.832,5.255-2.174c1.343-1.348,2.174-3.207,2.174-5.255c0-4.098-3.326-7.424-7.429-7.424h-93.438
		c-6.005,0-10.869-4.87-10.869-10.869c0-3.006,1.217-5.723,3.185-7.685c1.961-1.967,4.679-3.185,7.684-3.185h167.675
		c6.005,0,10.869,4.864,10.869,10.87c0,5.999-4.864,10.869-10.869,10.869h-31.847c-4.103,0-7.429,3.326-7.429,7.424
		c0,4.103,3.326,7.429,7.429,7.429h113.829C641.728,85.577,646.592,90.44,646.592,96.445"/>
	<path clip-path="url(#SVGID_2_)" fill="#FFFFFF" d="M867.593,331.048c0,6.005,4.864,10.869,10.869,10.869h167.675
		c6.006,0,10.87-4.864,10.87-10.869c0-3-1.218-5.717-3.185-7.685c-1.967-1.967-4.685-3.184-7.685-3.184h-11.456
		c-2.054,0-3.907-0.832-5.255-2.174c-1.343-1.348-2.174-3.207-2.174-5.255c0-4.098,3.326-7.424,7.429-7.424h93.438
		c6.005,0,10.869-4.87,10.869-10.869c0-3.006-1.217-5.723-3.185-7.685c-1.961-1.967-4.679-3.185-7.684-3.185H960.444
		c-6.005,0-10.869,4.864-10.869,10.87c0,5.999,4.864,10.869,10.869,10.869h31.847c4.103,0,7.429,3.326,7.429,7.424
		c0,4.103-3.326,7.429-7.429,7.429H878.462C872.457,320.179,867.593,325.043,867.593,331.048"/>
	<path clip-path="url(#SVGID_2_)" fill="#FFFFFF" d="M1551.303,131.048c0,6.005,4.863,10.869,10.869,10.869h167.675
		c6.006,0,10.87-4.864,10.87-10.869c0-3-1.219-5.717-3.186-7.685c-1.968-1.967-4.685-3.184-7.685-3.184h-11.456
		c-2.055,0-3.907-0.832-5.255-2.174c-1.343-1.348-2.175-3.207-2.175-5.255c0-4.098,3.326-7.424,7.43-7.424h93.438
		c6.006,0,10.869-4.87,10.869-10.869c0-3.006-1.217-5.723-3.185-7.685c-1.961-1.967-4.679-3.185-7.685-3.185h-167.675
		c-6.005,0-10.869,4.864-10.869,10.87c0,5.999,4.864,10.869,10.869,10.869H1676c4.104,0,7.43,3.326,7.43,7.424
		c0,4.103-3.326,7.429-7.43,7.429h-113.828C1556.166,120.179,1551.303,125.043,1551.303,131.048"/>
	<path clip-path="url(#SVGID_2_)" fill="#FFFFFF" d="M2206.16,454.771c0,6.005,4.863,10.869,10.869,10.869h167.675
		c6.006,0,10.87-4.864,10.87-10.869c0-3-1.219-5.717-3.186-7.685c-1.968-1.967-4.685-3.184-7.685-3.184h-11.456
		c-2.054,0-3.907-0.832-5.255-2.174c-1.343-1.348-2.174-3.207-2.174-5.255c0-4.098,3.325-7.424,7.429-7.424h93.438
		c6.006,0,10.869-4.87,10.869-10.869c0-3.006-1.217-5.723-3.185-7.685c-1.961-1.967-4.679-3.185-7.685-3.185h-167.675
		c-6.005,0-10.868,4.864-10.868,10.87c0,5.999,4.863,10.869,10.868,10.869h31.848c4.103,0,7.429,3.326,7.429,7.424
		c0,4.104-3.326,7.429-7.429,7.429h-113.829C2211.023,443.902,2206.16,448.766,2206.16,454.771"/>
</g>
</svg>
