<?xml version="1.0" encoding="utf-8"?>
<!-- Generator: Adobe Illustrator 16.0.0, SVG Export Plug-In . SVG Version: 6.00 Build 0)  -->
<!DOCTYPE svg PUBLIC "-//W3C//DTD SVG 1.1//EN" "http://www.w3.org/Graphics/SVG/1.1/DTD/svg11.dtd">
<svg version="1.1" id="Layer_1" xmlns="http://www.w3.org/2000/svg" xmlns:xlink="http://www.w3.org/1999/xlink" x="0px" y="0px"
	 width="2560px" height="1440px" viewBox="0 0 2560 1440" enable-background="new 0 0 2560 1440" xml:space="preserve">
<g>
	<defs>
		<path id="SVGID_1_" d="M361.684,912.267c-87.805,43.299-285.366,95.616-285.366,178.002
			c0,200.254,120.122,153.647,293.902,239.342c173.781,85.692,660.976,84.189,956.098,84.189
			c295.121,0,674.39,24.054,879.269-76.974c204.878-101.028,230.487-93.813,230.487-239.341s-150-151.542-313.415-232.123
			c-163.414-80.583-568.292-28.266-721.95-28.266c-153.659,0-309.757-35.479-500.001-35.479S449.489,868.97,361.684,912.267"/>
	</defs>
	<clipPath id="SVGID_2_">
		<use xlink:href="#SVGID_1_"  overflow="visible"/>
	</clipPath>
	
		<linearGradient id="SVGID_3_" gradientUnits="userSpaceOnUse" x1="9.765625e-004" y1="1440" x2="1.001" y2="1440" gradientTransform="matrix(0 244.0314 244.0314 0 -350148.9375 782)">
		<stop  offset="0" style="stop-color:#FFFFFF"/>
		<stop  offset="1" style="stop-color:#B9D2DD"/>
	</linearGradient>
	<rect x="76.318" y="784.779" clip-path="url(#SVGID_2_)" fill="url(#SVGID_3_)" width="2359.756" height="653.075"/>
</g>
<g>
	<defs>
		<path id="SVGID_4_" d="M579.802,879.751c-95.492,20.542-185.665,47.387-229.725,68.393
			c-23.431,11.171-52.989,22.536-84.281,34.569c-46.246,17.783-98.661,37.939-137.294,60.078
			c-37.249,21.346-50.521,38.521-50.521,47.479c0,70.379,16.483,94.546,30.843,107.736c20.942,19.237,56.821,29.574,102.247,42.661
			c41.122,11.847,92.299,26.591,147.835,53.068c70.727,33.717,209.591,56.963,412.737,69.093
			c183.771,10.973,389.838,10.973,526.196,10.973l31.72-0.001c48.399,0,97.928,0.589,150.365,1.213
			c53.336,0.635,108.488,1.29,163.248,1.29c207.448-0.001,438.295-8.955,577.57-75.352c25.252-12.038,47.99-22.598,68.051-31.913
			c68.507-31.814,109.857-51.017,128.093-71.713c14.525-16.487,19.188-40.747,19.188-99.84c0-37.165-12.102-62.111-40.464-83.411
			c-30.402-22.831-76.664-39.93-130.229-59.729c-39.661-14.66-84.613-31.273-130.415-53.108
			c-56.84-27.099-158.506-40.837-302.176-40.837c-92.875,0-187.667,5.384-271.302,10.134c-62.015,3.521-115.572,6.563-154.982,6.563
			c-77.469,0-154.146-8.043-235.326-16.556c-88.717-9.304-180.454-18.925-281.855-18.925
			C804.043,841.617,694.12,855.16,579.802,879.751"/>
	</defs>
	<clipPath id="SVGID_5_">
		<use xlink:href="#SVGID_4_"  overflow="visible"/>
	</clipPath>
	<defs>
		<filter id="Adobe_OpacityMaskFilter" filterUnits="userSpaceOnUse" x="25.042" y="608.143" width="2463.971" height="1001.635">
			<feColorMatrix  type="matrix" values="1 0 0 0 0  0 1 0 0 0  0 0 1 0 0  0 0 0 1 0"/>
		</filter>
	</defs>
	<mask maskUnits="userSpaceOnUse" x="25.042" y="608.143" width="2463.971" height="1001.635" id="SVGID_6_">
		<g filter="url(#Adobe_OpacityMaskFilter)">
			
				<linearGradient id="SVGID_7_" gradientUnits="userSpaceOnUse" x1="-9.765625e-004" y1="1440" x2="0.999" y2="1440" gradientTransform="matrix(60.4397 -604.397 -604.397 -60.4397 871537.75 88648.1641)">
				<stop  offset="0" style="stop-color:#FFFFFF"/>
				<stop  offset="1" style="stop-color:#000000"/>
			</linearGradient>
			<polygon clip-path="url(#SVGID_5_)" fill="url(#SVGID_7_)" points="25.042,1371.009 101.328,608.143 2489.013,846.911 
				2412.727,1609.777 			"/>
		</g>
	</mask>
	
		<linearGradient id="SVGID_8_" gradientUnits="userSpaceOnUse" x1="-9.765625e-004" y1="1440" x2="0.999" y2="1440" gradientTransform="matrix(60.4397 -604.397 -604.397 -60.4397 871537.75 88648.1641)">
		<stop  offset="0" style="stop-color:#FFFFFF"/>
		<stop  offset="1" style="stop-color:#B9D2DD"/>
	</linearGradient>
	<polygon clip-path="url(#SVGID_5_)" mask="url(#SVGID_6_)" fill="url(#SVGID_8_)" points="25.042,1371.009 101.328,608.143 
		2489.013,846.911 2412.727,1609.777 	"/>
</g>
<g>
	<defs>
		<rect id="SVGID_9_" width="2560" height="1440"/>
	</defs>
	<clipPath id="SVGID_10_">
		<use xlink:href="#SVGID_9_"  overflow="visible"/>
	</clipPath>
	<path clip-path="url(#SVGID_10_)" fill="#FFFFFF" d="M881.112,948.579c0,0,0.959-0.038,2.757-0.108
		c0.9-0.035,2.009-0.079,3.312-0.132c1.302-0.083,2.791-0.262,4.462-0.417c0.834-0.09,1.716-0.152,2.634-0.275
		c0.917-0.139,1.877-0.284,2.877-0.437c1-0.15,2.04-0.309,3.119-0.472c1.072-0.211,2.182-0.429,3.328-0.655
		c1.146-0.234,2.333-0.442,3.543-0.719c1.208-0.287,2.451-0.582,3.726-0.885c2.559-0.567,5.206-1.345,7.99-2.068
		c5.533-1.576,11.495-3.394,17.76-5.464c6.272-2.041,12.866-4.271,19.752-6.395c6.888-2.111,14.068-4.137,21.489-5.686
		c3.703-0.837,7.5-1.336,11.265-1.954c1.897-0.26,3.813-0.456,5.723-0.687l2.868-0.335c0.958-0.097,1.918-0.154,2.876-0.233
		l5.754-0.427c1.921-0.073,3.839-0.146,5.754-0.217c3.829-0.203,7.648-0.081,11.434-0.098c1.893-0.006,3.776,0.137,5.652,0.196
		c1.873,0.098,3.742,0.119,5.591,0.278c1.85,0.152,3.688,0.305,5.513,0.457c0.913,0.075,1.822,0.151,2.728,0.227
		c0.902,0.114,1.8,0.227,2.695,0.339c1.789,0.225,3.563,0.447,5.321,0.667c1.761,0.197,3.479,0.567,5.192,0.845
		c1.71,0.298,3.401,0.593,5.072,0.884c1.656,0.37,3.291,0.734,4.905,1.095c1.609,0.376,3.213,0.679,4.762,1.102
		c1.547,0.431,3.071,0.853,4.57,1.269c1.492,0.438,2.986,0.774,4.402,1.276c1.421,0.48,2.817,0.952,4.183,1.414
		c1.361,0.477,2.716,0.882,3.999,1.39c1.278,0.521,2.527,1.031,3.744,1.528c1.216,0.5,2.4,0.985,3.551,1.46
		c1.141,0.494,2.21,1.065,3.267,1.57c1.052,0.517,2.07,1.016,3.052,1.497c0.977,0.492,1.946,0.915,2.805,1.457
		c1.75,1.022,3.357,1.962,4.808,2.811c0.72,0.434,1.426,0.804,2.045,1.225c0.614,0.428,1.19,0.829,1.725,1.202
		c1.071,0.747,1.982,1.382,2.72,1.896c1.476,1.029,2.263,1.578,2.263,1.578s-0.796-0.536-2.289-1.542
		c-0.746-0.503-1.666-1.123-2.747-1.852c-0.541-0.364-1.122-0.756-1.742-1.173c-0.624-0.41-1.336-0.77-2.061-1.191
		c-1.462-0.823-3.081-1.735-4.843-2.728c-0.865-0.527-1.839-0.935-2.822-1.408c-0.987-0.466-2.011-0.947-3.067-1.445
		c-1.062-0.486-2.136-1.038-3.281-1.514c-1.155-0.454-2.344-0.92-3.564-1.399c-1.218-0.48-2.467-0.975-3.746-1.48
		c-1.283-0.494-2.638-0.887-3.998-1.349c-1.365-0.447-2.759-0.905-4.18-1.372c-1.414-0.486-2.907-0.809-4.397-1.231
		c-1.496-0.401-3.018-0.81-4.563-1.224c-1.547-0.407-3.148-0.693-4.754-1.055c-1.61-0.344-3.242-0.692-4.894-1.047
		c-1.667-0.275-3.354-0.553-5.06-0.835c-1.709-0.257-3.422-0.616-5.176-0.809c-1.751-0.216-3.519-0.432-5.302-0.65
		c-0.891-0.109-1.786-0.219-2.685-0.329c-0.902-0.072-1.808-0.145-2.717-0.218c-1.818-0.146-3.65-0.292-5.492-0.439
		c-1.842-0.152-3.704-0.168-5.571-0.26c-1.868-0.054-3.743-0.191-5.629-0.179c-3.772,0.026-7.575-0.084-11.387,0.131
		c-1.907,0.077-3.817,0.155-5.729,0.231l-5.727,0.44c-0.955,0.076-1.912,0.131-2.864,0.224l-2.849,0.324
		c-1.898,0.225-3.797,0.412-5.688,0.666c-3.784,0.609-7.549,1.091-11.226,1.912c-7.383,1.52-14.544,3.514-21.424,5.601
		c-6.874,2.116-13.49,4.271-19.784,6.26c-6.286,2.015-12.277,3.782-17.834,5.313c-2.798,0.695-5.453,1.465-8.029,1.991
		c-1.283,0.284-2.533,0.56-3.748,0.828c-1.217,0.257-2.412,0.448-3.563,0.665c-1.152,0.208-2.268,0.409-3.344,0.603
		c-1.085,0.147-2.13,0.288-3.134,0.424c-1.004,0.137-1.967,0.267-2.888,0.391c-0.922,0.108-1.808,0.159-2.645,0.234
		c-1.676,0.13-3.17,0.285-4.473,0.348c-1.304,0.031-2.414,0.058-3.313,0.079C882.072,948.557,881.112,948.579,881.112,948.579"/>
	<path clip-path="url(#SVGID_10_)" fill="#FFFFFF" d="M575.417,931.021c0,0,1.17,0.003,3.362,0.009
		c2.193,0.033,5.411,0.087,9.499,0.309c4.09,0.203,9.052,0.56,14.723,1.186c5.671,0.622,12.055,1.503,18.95,2.854
		c6.891,1.352,14.318,3.09,21.986,5.568c1.904,0.656,3.861,1.245,5.787,1.999c0.969,0.361,1.943,0.726,2.923,1.09
		c0.967,0.4,1.94,0.804,2.917,1.207c1.97,0.776,3.887,1.734,5.852,2.631c0.978,0.461,1.927,0.99,2.899,1.485
		c0.967,0.505,1.948,0.995,2.887,1.571c3.854,2.134,7.542,4.704,11.101,7.518c3.525,2.864,6.761,6.171,9.615,9.832
		c5.666,7.355,9.168,16.603,9.6,26.048c0.082,2.375-0.062,4.766-0.46,7.102c-0.428,2.335-1.113,4.618-2.034,6.795
		c-1.819,4.379-4.681,8.218-7.935,11.524c-6.628,6.577-14.817,10.988-22.925,14.326c-8.152,3.336-16.392,5.562-24.27,7.217
		c-7.887,1.64-15.447,2.645-22.444,3.265c-14.006,1.236-25.764,0.744-33.897-0.168c-4.07-0.471-7.24-1.051-9.379-1.537
		c-1.067-0.252-1.884-0.449-2.429-0.608c-0.546-0.149-0.828-0.227-0.828-0.227s0.283,0.073,0.831,0.216
		c0.546,0.152,1.366,0.339,2.436,0.576c2.143,0.458,5.317,0.995,9.387,1.412c4.07,0.403,9.033,0.693,14.73,0.691
		c5.695,0.001,12.121-0.256,19.1-0.892c6.977-0.65,14.511-1.686,22.362-3.356c7.841-1.683,16.035-3.938,24.114-7.286
		c8.036-3.349,16.121-7.765,22.59-14.245c3.176-3.259,5.947-7.016,7.692-11.273c0.884-2.117,1.538-4.332,1.943-6.597
		c0.378-2.276,0.499-4.576,0.42-6.875c-0.386-9.278-3.765-18.318-9.3-25.579c-2.789-3.611-5.963-6.886-9.434-9.733
		c-3.505-2.796-7.144-5.357-10.959-7.492c-0.928-0.575-1.901-1.065-2.858-1.571c-0.963-0.496-1.903-1.027-2.872-1.488
		c-1.949-0.9-3.849-1.86-5.805-2.641c-0.971-0.407-1.936-0.812-2.896-1.213c-0.974-0.369-1.942-0.734-2.905-1.099
		c-1.913-0.759-3.86-1.354-5.753-2.016c-7.626-2.504-15.024-4.271-21.893-5.65c-13.757-2.703-25.414-3.895-33.578-4.399
		c-4.084-0.274-7.298-0.37-9.49-0.433C576.586,931.038,575.417,931.021,575.417,931.021"/>
	<path clip-path="url(#SVGID_10_)" fill="#FFFFFF" d="M354.034,1212.071c0,0,0.752,0.796,2.162,2.288
		c0.713,0.737,1.556,1.686,2.615,2.729c1.076,1.028,2.312,2.209,3.696,3.532c1.391,1.316,3.031,2.664,4.76,4.191
		c1.746,1.509,3.743,3.01,5.816,4.686c4.28,3.178,9.157,6.708,14.743,10.154c5.562,3.477,11.729,7.027,18.46,10.381
		c6.717,3.376,13.947,6.646,21.565,9.684c3.808,1.523,7.716,2.979,11.698,4.375c0.998,0.342,1.999,0.686,3.003,1.029l1.507,0.516
		l1.521,0.422c2.061,0.563,4.133,1.127,6.212,1.695c1.04,0.284,2.082,0.568,3.126,0.854c1.044,0.28,2.105,0.486,3.159,0.734
		c2.112,0.478,4.23,0.955,6.353,1.435c2.113,0.518,4.269,0.865,6.417,1.263l6.45,1.171c2.156,0.361,4.325,0.642,6.485,0.966
		c2.163,0.298,4.316,0.665,6.481,0.905c2.166,0.233,4.327,0.465,6.482,0.697c2.155,0.234,4.303,0.479,6.453,0.606
		c4.296,0.288,8.551,0.701,12.772,0.817c4.218,0.18,8.384,0.387,12.488,0.399c4.106,0.07,8.143,0.14,12.095,0.207
		c3.961,0.142,7.824,0.35,11.581,0.583c7.516,0.462,14.615,0.931,21.176,1.17c6.559,0.231,12.58,0.326,17.906,0.08
		c1.334-0.025,2.621-0.114,3.862-0.215s2.442-0.153,3.587-0.287c2.286-0.301,4.404-0.474,6.277-0.875
		c0.942-0.173,1.833-0.336,2.671-0.489c0.835-0.17,1.601-0.403,2.323-0.581c1.44-0.373,2.672-0.669,3.623-1.061
		c1.932-0.694,2.962-1.065,2.962-1.065s-1.025,0.385-2.947,1.106c-0.948,0.406-2.176,0.719-3.613,1.113
		c-0.721,0.188-1.485,0.433-2.319,0.615c-0.838,0.165-1.729,0.341-2.67,0.526c-1.873,0.43-3.99,0.632-6.279,0.965
		c-1.147,0.15-2.349,0.22-3.591,0.34c-1.244,0.116-2.533,0.224-3.868,0.269c-5.337,0.328-11.373,0.319-17.943,0.097
		c-6.571-0.209-13.68-0.643-21.194-1.067c-3.757-0.216-7.618-0.405-11.557-0.527c-3.951-0.049-7.988-0.098-12.094-0.147
		c-4.11,0.006-8.285-0.183-12.512-0.342c-4.231-0.096-8.498-0.488-12.806-0.757c-2.156-0.117-4.311-0.353-6.473-0.578
		c-2.162-0.222-4.331-0.444-6.504-0.668c-2.173-0.229-4.334-0.588-6.506-0.876c-2.168-0.316-4.347-0.582-6.511-0.942l-6.467-1.206
		c-2.154-0.408-4.314-0.768-6.438-1.299c-2.131-0.491-4.258-0.982-6.378-1.473c-1.058-0.254-2.126-0.468-3.169-0.754
		c-1.043-0.29-2.083-0.579-3.122-0.868c-2.077-0.577-4.145-1.151-6.204-1.724l-1.561-0.442l-1.509-0.525
		c-1.005-0.35-2.007-0.698-3.007-1.046c-3.986-1.419-7.897-2.897-11.708-4.442c-7.623-3.083-14.856-6.396-21.574-9.813
		c-6.731-3.393-12.898-6.982-18.458-10.495c-5.596-3.464-10.435-7.078-14.676-10.325c-2.055-1.708-4.033-3.24-5.762-4.775
		c-1.711-1.554-3.334-2.925-4.708-4.263c-1.368-1.344-2.589-2.544-3.652-3.588c-1.045-1.06-1.874-2.019-2.577-2.767
		C354.775,1212.877,354.034,1212.071,354.034,1212.071"/>
	<path clip-path="url(#SVGID_10_)" fill="#FFFFFF" d="M902.375,1061.875c0,0,0.77,0.286,2.213,0.824
		c1.442,0.54,3.567,1.302,6.227,2.395c2.677,1.051,5.892,2.417,9.543,4.068c1.816,0.844,3.764,1.713,5.768,2.732
		c1.005,0.505,2.036,1.021,3.091,1.55c1.041,0.558,2.106,1.128,3.193,1.71c4.324,2.374,8.953,5.063,13.643,8.231
		c4.691,3.162,9.487,6.739,14.129,10.819c4.655,4.063,9.165,8.619,13.274,13.652c2.088,2.488,3.997,5.153,5.858,7.863
		c1.801,2.75,3.523,5.573,5.044,8.508c3.038,5.865,5.392,12.091,6.912,18.419c1.494,6.331,2.177,12.755,1.951,18.951
		c-0.168,6.199-1.297,12.147-3.041,17.549c-1.777,5.394-4.2,10.247-7.04,14.308c-2.816,4.081-6.037,7.359-9.226,9.805
		c-3.174,2.479-6.337,4.075-9.014,5.12c-2.692,1.034-4.919,1.499-6.436,1.752c-1.525,0.216-2.343,0.291-2.343,0.291
		s0.817-0.09,2.336-0.335c1.51-0.28,3.722-0.786,6.381-1.864c2.644-1.09,5.754-2.733,8.853-5.248
		c3.112-2.485,6.233-5.784,8.985-9.839c2.766-4.043,5.11-8.867,6.81-14.213c1.666-5.354,2.706-11.233,2.868-17.353
		c0.202-6.117-0.494-12.457-1.991-18.706c-1.523-6.245-3.872-12.387-6.892-18.177c-1.493-2.906-3.187-5.703-4.96-8.434
		c-1.834-2.688-3.715-5.335-5.777-7.809c-4.054-5.002-8.515-9.539-13.124-13.591c-4.608-4.055-9.326-7.675-13.965-10.868
		c-4.635-3.203-9.22-5.931-13.505-8.343c-1.079-0.592-2.135-1.171-3.167-1.737c-1.045-0.541-2.066-1.07-3.062-1.586
		c-1.98-1.056-3.907-1.957-5.705-2.834c-3.613-1.715-6.799-3.14-9.453-4.238c-2.637-1.141-4.75-1.943-6.181-2.509
		C903.14,1062.176,902.375,1061.875,902.375,1061.875"/>
	<path clip-path="url(#SVGID_10_)" fill="#FFFFFF" d="M1271.33,1087.072c0,0,1.254,0.151,3.605,0.438
		c1.176,0.141,2.627,0.313,4.332,0.514c1.711,0.145,3.678,0.31,5.88,0.493c4.408,0.324,9.771,0.579,15.928,0.687
		c6.154,0.077,13.101,0.033,20.676-0.173c7.576-0.182,15.78-0.535,24.46-0.873c8.681-0.332,17.84-0.661,27.325-0.693
		c2.372,0.014,4.763,0.029,7.171,0.043c2.408,0.069,4.834,0.138,7.273,0.207c2.438,0.135,4.892,0.271,7.357,0.408
		c2.482,0.21,4.926,0.474,7.407,0.741c9.911,1.207,19.87,3.148,29.64,5.854c9.752,2.743,19.311,6.241,28.258,10.671
		c8.936,4.424,17.354,9.647,24.534,15.905c7.136,6.271,13.132,13.483,17.003,21.332c3.854,7.852,5.577,16.139,5.553,23.745
		c0.019,7.635-1.608,14.506-3.494,20.368c-2.104,5.806-4.373,10.694-6.551,14.547c-1.105,1.917-2.061,3.646-2.947,5.117
		c-0.95,1.432-1.759,2.649-2.413,3.637c-1.31,1.974-2.009,3.026-2.009,3.026s0.687-1.062,1.973-3.051
		c0.642-0.995,1.435-2.221,2.367-3.663c0.867-1.48,1.801-3.221,2.882-5.146c2.127-3.872,4.331-8.778,6.354-14.581
		c1.801-5.861,3.328-12.695,3.299-20.252c-0.008-7.533-1.746-15.715-5.587-23.462c-3.859-7.743-9.823-14.857-16.923-21.047
		c-7.145-6.176-15.527-11.328-24.425-15.688c-8.909-4.367-18.433-7.801-28.144-10.497c-9.699-2.73-19.627-4.707-29.463-5.947
		c-2.464-0.275-4.947-0.553-7.376-0.769c-2.456-0.147-4.9-0.292-7.331-0.437c-2.433-0.079-4.852-0.158-7.254-0.236
		c-2.402-0.025-4.789-0.049-7.155-0.074c-9.469-0.007-18.622,0.285-27.302,0.58c-8.68,0.302-16.889,0.622-24.471,0.772
		c-3.791,0.101-7.425,0.118-10.882,0.136c-3.456-0.025-6.735-0.058-9.815-0.142c-6.16-0.182-11.524-0.501-15.933-0.878
		c-2.201-0.211-4.167-0.399-5.878-0.563c-1.703-0.224-3.151-0.413-4.326-0.567C1272.582,1087.239,1271.33,1087.072,1271.33,1087.072
		"/>
	<path clip-path="url(#SVGID_10_)" fill="#FFFFFF" d="M1280,1254.553c0,0-0.962,0.001-2.767,0.003
		c-1.804-0.015-4.451-0.04-7.818-0.146c-6.735-0.198-16.35-0.672-27.874-1.411c-11.525-0.729-24.969-1.576-39.383-2.171
		c-14.412-0.576-29.812-0.821-45.168-0.033c-7.679,0.365-15.343,1.004-22.843,1.979c-7.496,0.99-14.833,2.305-21.807,4.086
		c-6.976,1.764-13.598,3.955-19.644,6.587c-6.049,2.622-11.483,5.74-16.159,9.088c-4.643,3.396-8.514,7.023-11.572,10.561
		c-3.067,3.536-5.314,6.965-7.001,9.872c-1.633,2.939-2.741,5.347-3.424,7.016c-0.671,1.674-1.029,2.568-1.029,2.568
		s0.344-0.899,0.989-2.585c0.656-1.681,1.726-4.107,3.318-7.081c1.644-2.941,3.845-6.419,6.872-10.024
		c3.015-3.608,6.857-7.328,11.515-10.781c4.681-3.415,10.129-6.604,16.197-9.3c3.028-1.363,6.215-2.582,9.503-3.734
		c3.304-1.103,6.709-2.152,10.221-3.026c7.008-1.813,14.375-3.154,21.898-4.17c7.528-1.001,15.216-1.668,22.916-2.051
		c15.404-0.747,30.828-0.454,45.254,0.165c14.429,0.632,27.866,1.663,39.384,2.476c11.517,0.827,21.114,1.521,27.843,1.804
		c3.364,0.159,6.009,0.228,7.813,0.271C1279.038,1254.538,1280,1254.553,1280,1254.553"/>
	<path clip-path="url(#SVGID_10_)" fill="#FFFFFF" d="M1712.068,1200.335c0,0,0.312,0.034,0.913,0.1
		c0.603,0.073,1.499,0.145,2.668,0.228c2.341,0.146,5.783,0.233,10.154,0.015c8.734-0.42,21.202-2.086,35.642-6.146
		c7.205-2.049,14.9-4.716,22.687-8.329c7.748-3.641,15.687-8.182,22.684-14.382c1.733-1.561,3.414-3.208,4.989-4.973
		c1.559-1.778,3.02-3.663,4.331-5.664c2.617-4.002,4.56-8.52,5.499-13.296c1.898-9.614-0.696-19.817-5.462-28.421
		c-2.444-4.304-5.63-8.175-9.273-11.511c-3.628-3.362-7.695-6.208-11.906-8.709c-8.452-4.997-17.479-8.618-26.249-11.895
		c-8.791-3.255-17.403-6.114-25.473-9.114c-8.067-2.993-15.617-6.105-22.256-9.657c-6.645-3.525-12.34-7.554-16.7-11.855
		c-4.396-4.271-7.357-8.81-9.26-12.751c-1.922-3.95-2.819-7.31-3.315-9.597c-0.293-1.137-0.389-2.036-0.512-2.629
		c-0.104-0.596-0.158-0.904-0.158-0.904s0.058,0.308,0.17,0.902c0.131,0.592,0.235,1.489,0.543,2.621
		c0.523,2.278,1.461,5.621,3.424,9.532c1.942,3.903,4.941,8.377,9.36,12.565c4.388,4.216,10.085,8.141,16.701,11.64
		c6.621,3.507,14.158,6.578,22.225,9.532c8.067,2.961,16.689,5.782,25.512,9.007c8.801,3.248,17.879,6.841,26.433,11.848
		c4.263,2.507,8.395,5.37,12.098,8.772c3.716,3.377,6.994,7.312,9.504,11.708c1.228,2.188,2.353,4.525,3.169,6.877
		c0.864,2.363,1.63,4.778,2.11,7.253c1.057,4.927,1.117,10.055,0.173,14.953c-0.984,4.894-2.993,9.508-5.676,13.571
		c-1.345,2.032-2.837,3.942-4.427,5.74c-1.605,1.784-3.314,3.445-5.075,5.016c-7.103,6.239-15.11,10.771-22.914,14.399
		c-7.84,3.597-15.572,6.241-22.81,8.266c-7.242,2.024-14.012,3.377-20.05,4.28c-6.04,0.899-11.351,1.357-15.729,1.517
		c-4.38,0.165-7.825,0.036-10.165-0.138c-1.169-0.098-2.064-0.18-2.666-0.261C1712.38,1200.372,1712.068,1200.335,1712.068,1200.335
		"/>
	<path clip-path="url(#SVGID_10_)" fill="#FFFFFF" d="M1842.756,890.783c0,0,6.385-0.606,17.557-1.665
		c2.8-0.212,5.897-0.445,9.271-0.699c3.373-0.244,7.019-0.571,10.924-0.738c3.904-0.205,8.06-0.423,12.438-0.653
		c4.382-0.164,8.994-0.229,13.804-0.356c4.81-0.181,9.824-0.042,15.012-0.047c2.593,0.035,5.233-0.021,7.91,0.088
		c2.677,0.099,5.396,0.199,8.15,0.301c2.755,0.116,5.55,0.173,8.375,0.341c2.821,0.203,5.679,0.409,8.566,0.617
		c2.886,0.229,5.813,0.374,8.751,0.677c2.938,0.326,5.903,0.655,8.894,0.986c1.496,0.166,2.997,0.333,4.505,0.5l2.265,0.251
		l2.269,0.33c3.021,0.448,6.063,0.9,9.124,1.354c6.12,0.924,12.307,1.944,18.517,3.119c6.21,1.173,12.439,2.54,18.635,4.146
		c6.196,1.604,12.357,3.474,18.378,5.75c6.011,2.287,11.905,4.943,17.416,8.253c2.781,1.607,5.402,3.47,7.944,5.412
		c2.486,2.014,4.875,4.149,6.99,6.536c2.082,2.401,4.045,4.925,5.542,7.716l0.591,1.025c0.197,0.411,0.32,0.732,0.482,1.103
		c0.314,0.712,0.619,1.43,0.868,2.188c0.271,0.744,0.535,1.489,0.728,2.25c0.221,0.754,0.425,1.512,0.563,2.283
		c1.32,6.138,0.585,12.585-1.815,18.166c-2.36,5.618-6.026,10.445-10.055,14.621c-4.071,4.158-8.52,7.735-13.063,10.877
		c-9.106,6.279-18.475,11-27.294,14.852c-8.831,3.851-17.185,6.752-24.666,9.026c-7.487,2.264-14.118,3.881-19.619,5.002
		c-5.503,1.113-9.875,1.735-12.866,2.038c-2.992,0.305-4.597,0.346-4.597,0.346s1.604-0.056,4.592-0.39
		c2.987-0.331,7.351-0.994,12.837-2.159c5.484-1.172,12.092-2.85,19.547-5.182c7.447-2.349,15.753-5.326,24.558-9.175
		c8.782-3.87,18.107-8.609,27.143-14.885c4.508-3.139,8.912-6.707,12.928-10.835c3.975-4.145,7.568-8.92,9.858-14.426
		c2.331-5.473,3.02-11.733,1.716-17.709c-0.137-0.752-0.34-1.49-0.558-2.224c-0.19-0.745-0.448-1.464-0.711-2.182
		c-0.238-0.722-0.545-1.438-0.862-2.152c-0.152-0.343-0.317-0.749-0.458-1.041l-0.583-1.003c-1.473-2.728-3.407-5.195-5.459-7.546
		c-2.084-2.336-4.44-4.431-6.897-6.408c-2.514-1.906-5.106-3.737-7.863-5.318c-5.459-3.256-11.315-5.867-17.289-8.127
		c-5.973-2.279-12.096-4.161-18.262-5.777c-6.166-1.619-12.371-3.003-18.563-4.192c-6.191-1.194-12.364-2.233-18.476-3.175
		c-3.06-0.464-6.099-0.926-9.116-1.383l-2.255-0.336l-2.261-0.258c-1.505-0.172-3.003-0.343-4.494-0.514
		c-2.984-0.341-5.943-0.679-8.875-1.014c-2.934-0.313-5.854-0.467-8.735-0.704c-2.883-0.218-5.735-0.433-8.553-0.645
		c-2.819-0.178-5.611-0.243-8.362-0.368c-2.752-0.11-5.466-0.22-8.14-0.326c-2.673-0.118-5.311-0.071-7.901-0.114
		c-5.182-0.011-10.191-0.167-14.997-0.002c-4.807,0.103-9.413,0.203-13.795,0.297c-4.378,0.188-8.532,0.367-12.435,0.535
		c-3.906,0.13-7.552,0.422-10.927,0.633c-3.374,0.222-6.473,0.427-9.272,0.611C1849.146,890.238,1842.756,890.783,1842.756,890.783"
		/>
	<path clip-path="url(#SVGID_10_)" fill="#FFFFFF" d="M2153.851,988.573c0,0,1.386,0.381,3.983,1.096
		c0.649,0.178,1.375,0.378,2.174,0.599c0.791,0.242,1.634,0.574,2.556,0.896c1.835,0.673,3.983,1.355,6.255,2.446
		c1.15,0.511,2.362,1.05,3.633,1.614c1.229,0.651,2.516,1.334,3.856,2.044c0.67,0.356,1.354,0.72,2.051,1.091
		c0.671,0.415,1.354,0.839,2.052,1.27c1.381,0.882,2.859,1.725,4.299,2.728c5.82,3.921,11.942,9.013,17.941,15.229
		c5.998,6.215,11.854,13.577,17.156,21.938c5.305,8.356,10.063,17.707,13.938,27.793c3.906,10.073,6.772,20.936,8.467,32.155
		c0.908,5.605,1.295,11.325,1.527,17.064c0.043,5.742-0.063,11.527-0.813,17.255c-0.598,5.747-1.892,11.396-3.382,16.946
		l-1.327,4.101c-0.227,0.682-0.434,1.368-0.673,2.043l-0.805,1.993c-0.535,1.328-1.07,2.653-1.603,3.978
		c-0.63,1.28-1.257,2.56-1.884,3.836c-5.242,10.09-12.17,19.044-19.783,26.697c-7.624,7.673-16.006,14.031-24.441,19.205
		c-4.21,2.604-8.431,4.933-12.605,6.994c-4.166,2.077-8.267,3.935-12.266,5.561c-7.975,3.313-15.514,5.759-22.238,7.732
		c-6.729,1.965-12.668,3.416-17.574,4.527c-4.906,1.117-8.785,1.878-11.43,2.394c-2.648,0.497-4.062,0.763-4.062,0.763
		s1.41-0.28,4.052-0.806c2.639-0.544,6.51-1.346,11.401-2.515c4.891-1.162,10.81-2.675,17.509-4.71
		c6.693-2.048,14.188-4.57,22.137-7.883c3.982-1.637,8.063-3.503,12.208-5.589c4.152-2.07,8.349-4.404,12.53-7.014
		c8.381-5.182,16.695-11.539,24.243-19.191c7.542-7.638,14.38-16.548,19.537-26.561c0.616-1.265,1.231-2.534,1.85-3.804
		c0.524-1.313,1.048-2.627,1.574-3.944l0.788-1.975c0.236-0.67,0.438-1.352,0.659-2.027l1.3-4.065
		c1.458-5.506,2.715-11.105,3.293-16.805c0.765-5.676,0.891-11.415,0.87-17.116c-0.211-5.698-0.573-11.383-1.457-16.958
		c-1.644-11.158-4.454-21.976-8.306-32.016c-3.818-10.052-8.522-19.378-13.774-27.718c-5.25-8.345-11.054-15.697-17.004-21.907
		c-5.966-6.196-11.999-11.333-17.757-15.306c-1.424-1.016-2.889-1.869-4.256-2.764c-0.69-0.438-1.367-0.866-2.032-1.287
		c-0.691-0.378-1.369-0.747-2.034-1.109c-1.33-0.723-2.605-1.417-3.825-2.079c-1.262-0.577-2.466-1.128-3.608-1.65
		c-2.258-1.112-4.391-1.815-6.217-2.507c-0.918-0.332-1.756-0.673-2.544-0.924c-0.796-0.228-1.519-0.436-2.167-0.621
		C2155.232,988.969,2153.851,988.573,2153.851,988.573"/>
	<path clip-path="url(#SVGID_10_)" fill="#FFFFFF" d="M1466.081,960.078c0,0,1.253,0.045,3.603,0.129
		c2.35,0.05,5.799,0.03,10.174-0.289c4.375-0.305,9.66-1.015,15.649-2.198c5.991-1.182,12.663-2.921,19.862-5.081
		c7.201-2.154,14.908-4.798,23.055-7.613c8.147-2.814,16.74-5.801,25.773-8.466c9.036-2.623,18.525-4.978,28.373-6.136
		c1.226-0.177,2.464-0.27,3.702-0.388l1.858-0.171l1.867-0.104l1.871-0.102l0.468-0.024l0.258-0.013l0.234,0.004l0.935,0.018
		l3.741,0.07c2.497,0.046,5,0.092,7.504,0.139c2.505,0.061,5.016,0.271,7.523,0.4c2.508,0.161,5.019,0.297,7.521,0.49
		c2.495,0.256,4.988,0.513,7.478,0.768l3.728,0.382l1.86,0.194l1.85,0.261c2.464,0.347,4.921,0.693,7.368,1.039
		c9.784,1.418,19.335,3.299,28.521,5.354c2.308,0.46,4.558,1.085,6.803,1.639c2.241,0.564,4.46,1.126,6.656,1.68
		c2.206,0.519,4.34,1.206,6.472,1.801c2.126,0.614,4.227,1.22,6.299,1.818c8.283,2.366,16.057,4.852,23.312,6.805
		c7.257,1.948,13.996,3.419,20.047,4.212c6.046,0.778,11.396,0.963,15.76,0.522c1.098-0.026,2.114-0.266,3.082-0.38
		c0.961-0.168,1.883-0.215,2.702-0.456c0.827-0.201,1.593-0.388,2.294-0.559s1.345-0.307,1.889-0.532
		c2.214-0.791,3.395-1.213,3.395-1.213s-1.177,0.438-3.38,1.255c-0.543,0.232-1.186,0.376-1.886,0.557
		c-0.7,0.179-1.465,0.375-2.292,0.587c-0.817,0.253-1.74,0.31-2.701,0.49c-0.97,0.127-1.986,0.379-3.088,0.419
		c-4.371,0.495-9.741,0.375-15.819-0.331c-6.083-0.716-12.866-2.108-20.142-4.051c-7.285-1.929-15.053-4.377-23.355-6.712
		c-2.071-0.589-4.171-1.185-6.296-1.788c-2.13-0.586-4.265-1.263-6.468-1.771c-2.194-0.544-4.412-1.094-6.652-1.649
		c-2.242-0.542-4.49-1.155-6.797-1.605c-9.176-2.013-18.713-3.851-28.479-5.223c-2.442-0.335-4.895-0.67-7.354-1.007l-1.847-0.252
		l-1.855-0.185l-3.72-0.366c-2.483-0.244-4.971-0.489-7.461-0.734c-2.492-0.184-4.992-0.302-7.489-0.462
		c-2.499-0.138-4.99-0.358-7.493-0.43c-2.505-0.057-5.007-0.114-7.504-0.171l-3.742-0.085l-0.934-0.021l-0.234-0.005l-0.208,0.012
		l-0.464,0.022l-1.856,0.093l-1.852,0.095l-1.847,0.163c-1.229,0.11-2.459,0.198-3.678,0.367
		c-9.784,1.111-19.242,3.414-28.264,5.992c-9.021,2.62-17.619,5.568-25.777,8.349s-15.885,5.396-23.108,7.523
		c-7.214,2.155-13.928,3.813-19.947,4.918c-6.017,1.115-11.322,1.761-15.707,2.014c-4.383,0.267-7.838,0.244-10.187,0.166
		C1467.333,960.139,1466.081,960.078,1466.081,960.078"/>
	<path clip-path="url(#SVGID_10_)" fill="#FFFFFF" d="M420,1133c0,0,1.255,0.851,3.607,2.447c1.191,0.774,2.595,1.832,4.365,2.889
		c1.758,1.073,3.778,2.307,6.041,3.69c2.326,1.272,4.901,2.683,7.704,4.218c1.434,0.706,2.926,1.439,4.474,2.201
		c1.546,0.765,3.143,1.567,4.847,2.28c1.69,0.741,3.435,1.508,5.231,2.296c1.807,0.761,3.702,1.454,5.627,2.217
		c0.965,0.375,1.942,0.756,2.931,1.141c1.003,0.345,2.019,0.696,3.046,1.05c2.063,0.685,4.14,1.487,6.322,2.119
		c8.652,2.773,18.25,5.063,28.513,6.772c10.265,1.687,21.227,2.695,32.576,2.683c11.348,0.042,23.035-1.342,34.923-2.394
		c11.885-1.124,23.953-2.338,36.04-3.399c12.089-1.024,24.196-1.889,36.135-2.378c11.938-0.493,23.709-0.547,35.082-0.065
		c11.372,0.482,22.344,1.53,32.654,3.147c10.312,1.609,19.954,3.792,28.702,6.32c8.741,2.545,16.634,5.315,23.422,8.258
		c1.721,0.679,3.349,1.422,4.918,2.146c1.572,0.718,3.087,1.408,4.543,2.071c2.857,1.441,5.481,2.763,7.851,3.958
		c2.324,1.281,4.4,2.425,6.205,3.42c1.803,0.998,3.28,1.948,4.506,2.667C792.701,1194.219,794,1195,794,1195
		s-1.307-0.768-3.758-2.209c-1.233-0.706-2.718-1.64-4.53-2.62c-1.815-0.976-3.9-2.098-6.236-3.354
		c-2.38-1.169-5.015-2.465-7.883-3.874c-1.461-0.648-2.981-1.323-4.558-2.023c-1.573-0.708-3.206-1.433-4.931-2.094
		c-1.714-0.686-3.484-1.392-5.305-2.119c-1.847-0.66-3.747-1.338-5.697-2.034c-1.939-0.728-3.979-1.324-6.045-2
		c-1.035-0.332-2.082-0.667-3.141-1.006c-1.07-0.301-2.151-0.606-3.244-0.915c-8.736-2.491-18.361-4.634-28.652-6.204
		c-10.29-1.578-21.238-2.585-32.587-3.025c-11.349-0.442-23.097-0.348-35.014,0.187c-11.919,0.527-24.009,1.439-36.087,2.496
		c-12.081,1.018-24.152,2.19-36.044,3.274c-11.888,1.01-23.594,2.356-35.005,2.275c-11.393-0.025-22.389-1.076-32.68-2.804
		c-10.288-1.751-19.905-4.08-28.57-6.891c-2.185-0.641-4.265-1.452-6.331-2.146c-1.028-0.359-2.045-0.713-3.05-1.064
		c-0.988-0.394-1.965-0.782-2.928-1.168c-1.922-0.781-3.815-1.497-5.618-2.277c-1.791-0.808-3.531-1.592-5.218-2.353
		c-1.699-0.73-3.291-1.551-4.832-2.333c-1.542-0.777-3.029-1.527-4.458-2.249c-2.791-1.564-5.354-3.002-7.669-4.3
		c-2.252-1.407-4.262-2.662-6.011-3.755c-1.759-1.075-3.153-2.146-4.336-2.932C421.246,1133.864,420,1133,420,1133"/>
	<path clip-path="url(#SVGID_10_)" fill="#FFFFFF" d="M778,1278c0,0,0.64,0.263,1.841,0.757c1.208,0.474,2.941,1.271,5.227,2.074
		c1.136,0.416,2.394,0.877,3.764,1.378c1.387,0.454,2.886,0.945,4.488,1.47c1.606,0.512,3.34,0.976,5.153,1.509
		c1.818,0.515,3.753,0.971,5.759,1.493c2.02,0.463,4.13,0.93,6.318,1.377c2.202,0.384,4.462,0.869,6.817,1.184
		c4.687,0.772,9.678,1.241,14.837,1.671c5.168,0.366,10.521,0.512,15.96,0.487c5.44-0.073,10.961-0.346,16.47-0.788
		c5.509-0.456,11.001-1.09,16.391-1.847c5.385-0.792,10.666-1.7,15.755-2.695c5.081-1.032,9.991-2.053,14.616-3.158
		c4.632-1.074,8.987-2.199,13.002-3.251c4.003-1.102,7.673-2.11,10.926-3.004c3.243-0.931,6.069-1.748,8.389-2.447
		C948.35,1272.803,951,1272,951,1272s-2.632,0.862-7.237,2.37c-2.305,0.75-5.113,1.631-8.337,2.632
		c-3.227,0.991-6.878,2.081-10.88,3.201c-4.007,1.103-8.352,2.284-12.979,3.417c-4.619,1.165-9.524,2.261-14.618,3.3
		c-5.098,1.02-10.39,1.951-15.789,2.769c-5.405,0.78-10.915,1.441-16.444,1.919c-5.534,0.422-11.08,0.672-16.544,0.723
		c-5.464,0.003-10.841-0.166-16.032-0.555c-5.184-0.435-10.19-0.985-14.888-1.817c-2.36-0.345-4.625-0.861-6.83-1.272
		c-2.191-0.477-4.303-0.971-6.324-1.46c-2.006-0.554-3.945-1.021-5.757-1.581c-1.807-0.573-3.533-1.076-5.131-1.623
		c-1.594-0.562-3.085-1.087-4.464-1.571c-1.361-0.533-2.611-1.022-3.741-1.464c-2.27-0.855-3.983-1.689-5.181-2.189
		C778.634,1278.277,778,1278,778,1278"/>
	<path clip-path="url(#SVGID_10_)" fill="#FFFFFF" d="M909,994c0,0,1.564,0.016,4.498,0.045c1.466,0.015,3.275,0.033,5.402,0.054
		c2.127,0.013,4.568,0.168,7.305,0.265c1.368,0.056,2.81,0.115,4.322,0.178c1.511,0.081,3.088,0.222,4.735,0.338
		c3.292,0.245,6.856,0.475,10.644,0.945c1.897,0.209,3.854,0.425,5.869,0.646c2.006,0.292,4.07,0.593,6.188,0.9
		c4.249,0.551,8.656,1.484,13.274,2.347c9.181,1.979,19.085,4.416,29.281,7.901c10.193,3.474,20.724,7.784,31.259,12.99
		c10.558,5.165,21.016,11.391,31.278,18.229c10.302,6.776,20.264,14.469,29.584,22.849c9.339,8.363,18.185,17.248,26.73,26.126
		c8.557,8.868,16.854,17.709,25.157,25.987c8.289,8.291,16.583,16.033,24.977,22.738c8.371,6.727,16.801,12.445,25.009,16.966
		c8.205,4.528,16.148,7.878,23.355,10.329c1.813,0.584,3.567,1.149,5.261,1.695c1.72,0.456,3.378,0.896,4.971,1.318
		c0.798,0.206,1.574,0.432,2.344,0.609c0.774,0.161,1.531,0.318,2.271,0.472c1.48,0.308,2.891,0.601,4.23,0.879
		c5.393,0.923,9.654,1.536,12.58,1.755c2.919,0.285,4.476,0.438,4.476,0.438s-1.558-0.137-4.481-0.394
		c-2.929-0.19-7.197-0.763-12.605-1.634c-1.343-0.265-2.759-0.545-4.244-0.838c-0.743-0.146-1.502-0.297-2.279-0.451
		c-0.773-0.171-1.552-0.388-2.354-0.587c-1.6-0.407-3.266-0.833-4.994-1.272c-1.703-0.53-3.467-1.079-5.29-1.647
		c-7.251-2.38-15.259-5.664-23.5-10.201c-8.253-4.508-16.732-10.219-25.15-16.937c-8.442-6.696-16.781-14.429-25.109-22.703
		c-8.343-8.263-16.674-17.079-25.255-25.913c-8.569-8.845-17.432-17.678-26.764-25.992c-9.269-8.387-19.146-16.067-29.406-22.866
		c-10.211-6.854-20.617-13.099-31.128-18.282c-10.487-5.227-20.973-9.561-31.128-13.059c-10.158-3.511-20.03-5.974-29.185-7.979
		c-4.604-0.884-9.004-1.809-13.238-2.401c-2.112-0.329-4.169-0.648-6.17-0.96c-2.01-0.241-3.962-0.475-5.854-0.702
		c-3.779-0.507-7.337-0.771-10.624-1.048c-1.644-0.131-3.219-0.288-4.728-0.383c-1.51-0.077-2.95-0.151-4.316-0.22
		c-2.734-0.123-5.173-0.304-7.3-0.335c-2.126-0.042-3.935-0.077-5.401-0.106C910.564,994.031,909,994,909,994"/>
	<path clip-path="url(#SVGID_10_)" fill="#FFFFFF" d="M1261,1021c0,0,1.205-0.312,3.464-0.898c2.263-0.565,5.555-1.506,9.818-2.412
		c2.129-0.459,4.47-1.053,7.05-1.542c2.58-0.495,5.369-1.03,8.35-1.603c2.997-0.481,6.187-0.994,9.549-1.534
		c3.377-0.429,6.928-0.899,10.64-1.319c7.435-0.738,15.505-1.45,24.065-1.703c8.558-0.362,17.595-0.303,26.931,0.039
		c9.339,0.328,18.963,1.175,28.712,2.27c9.744,1.167,19.586,2.778,29.369,4.691c9.762,2.025,19.435,4.451,28.874,7.131
		c9.404,2.795,18.583,5.807,27.325,9.107c8.721,3.349,17.082,6.776,24.82,10.447c7.788,3.565,14.952,7.345,21.524,10.899
		c3.247,1.849,6.359,3.619,9.296,5.343c2.894,1.795,5.638,3.497,8.218,5.097c2.53,1.676,4.898,3.244,7.088,4.694
		c2.187,1.455,4.125,2.892,5.913,4.137c3.587,2.475,6.266,4.61,8.141,5.999c1.86,1.407,2.854,2.157,2.854,2.157
		s-1.002-0.738-2.881-2.122c-1.892-1.366-4.594-3.468-8.21-5.896c-1.802-1.222-3.757-2.635-5.959-4.062
		c-2.205-1.422-4.59-2.959-7.138-4.602c-2.597-1.566-5.358-3.232-8.271-4.989c-2.957-1.678-6.066-3.443-9.31-5.284
		c-6.577-3.521-13.745-7.264-21.534-10.79c-7.739-3.631-16.101-7.017-24.817-10.321c-8.737-3.257-17.908-6.224-27.302-8.973
		c-9.428-2.636-19.088-5.007-28.831-6.995c-9.749-1.949-19.559-3.598-29.275-4.802c-9.721-1.133-19.32-2.021-28.639-2.385
		c-9.314-0.38-18.334-0.479-26.876-0.153c-8.547,0.217-16.606,0.894-24.031,1.6c-3.709,0.396-7.253,0.873-10.632,1.259
		c-3.364,0.498-6.555,0.97-9.553,1.415c-2.985,0.534-5.778,1.035-8.36,1.499c-2.584,0.457-4.928,1.021-7.062,1.453
		c-4.271,0.854-7.576,1.755-9.846,2.293C1262.208,1020.703,1261,1021,1261,1021"/>
	<path clip-path="url(#SVGID_10_)" fill="#FFFFFF" d="M1553,894c0,0-4.82-0.747-13.256-2.055c-4.23-0.565-9.387-1.082-15.287-1.767
		c-2.962-0.224-6.115-0.462-9.438-0.712c-1.661-0.129-3.365-0.261-5.109-0.396c-1.748-0.08-3.536-0.162-5.362-0.245
		c-1.827-0.083-3.691-0.168-5.591-0.255c-1.899-0.09-3.835-0.188-5.806-0.196c-3.942-0.064-8.018-0.13-12.206-0.198
		c-4.189,0.037-8.493,0.075-12.893,0.114c-4.397,0.073-8.891,0.25-13.459,0.374c-9.127,0.423-18.604,0.569-28.071,1.968
		c-9.479,1.401-18.979,3.613-28.342,6.292c-9.373,2.655-18.64,5.692-27.765,8.688c-4.564,1.491-9.09,2.981-13.585,4.387
		c-2.242,0.72-4.487,1.386-6.709,2.067l-0.833,0.254c-0.33,0.104-0.578,0.136-0.871,0.208l-1.692,0.374
		c-1.125,0.249-2.246,0.497-3.361,0.744c-2.233,0.492-4.447,0.982-6.641,1.468c-2.203,0.438-4.421,0.722-6.596,1.085
		c-2.179,0.343-4.335,0.683-6.464,1.018c-2.134,0.296-4.258,0.45-6.344,0.678c-2.089,0.209-4.148,0.416-6.178,0.619
		c-2.026,0.22-4.039,0.233-6.009,0.358c-3.943,0.163-7.751,0.479-11.414,0.425c-3.662,0.007-7.171,0.082-10.507,0.029
		c-3.334-0.113-6.497-0.221-9.47-0.322c-2.973-0.063-5.748-0.3-8.317-0.445c-2.567-0.16-4.926-0.309-7.056-0.442
		C1249.861,917.406,1245,917,1245,917s4.865,0.345,13.38,0.948c2.131,0.106,4.491,0.225,7.059,0.354
		c2.569,0.113,5.345,0.315,8.317,0.341c2.97,0.064,6.131,0.133,9.463,0.203c3.331,0.013,6.835-0.059,10.49-0.087
		c3.657,0.038,7.455-0.295,11.39-0.474c1.966-0.133,3.973-0.155,5.994-0.383c2.023-0.212,4.076-0.428,6.158-0.646
		c2.079-0.234,4.198-0.397,6.322-0.702c2.118-0.343,4.262-0.689,6.43-1.041c2.164-0.371,4.364-0.66,6.562-1.107
		c2.191-0.494,4.403-0.994,6.634-1.497c1.114-0.251,2.234-0.504,3.359-0.758l1.689-0.382c0.269-0.066,0.596-0.119,0.817-0.197
		l0.829-0.257c2.217-0.689,4.453-1.364,6.689-2.093c4.483-1.423,9-2.932,13.558-4.442c9.11-3.033,18.375-6.12,27.768-8.815
		c9.403-2.646,18.957-4.829,28.49-6.195c9.561-1.369,19.032-1.472,28.168-1.855c4.574-0.104,9.071-0.263,13.475-0.317
		c4.404-0.02,8.713-0.039,12.907-0.058c4.192,0.086,8.271,0.169,12.218,0.25c1.974,0.018,3.911,0.123,5.813,0.221
		c1.901,0.096,3.769,0.188,5.597,0.28c1.828,0.091,3.618,0.18,5.366,0.268c1.745,0.148,3.45,0.292,5.113,0.434
		c3.323,0.292,6.477,0.569,9.438,0.83c5.9,0.76,11.055,1.341,15.276,1.959C1548.189,893.193,1553,894,1553,894"/>
	<path clip-path="url(#SVGID_10_)" fill="#FFFFFF" d="M1133,878c0,0-1.879-0.669-5.167-1.841c-0.821-0.294-1.73-0.621-2.72-0.977
		c-0.998-0.331-2.077-0.688-3.23-1.07c-2.304-0.771-4.901-1.638-7.766-2.493c-1.428-0.438-2.916-0.895-4.456-1.366
		c-1.553-0.428-3.158-0.871-4.808-1.327c-1.647-0.467-3.344-0.924-5.095-1.329c-1.744-0.431-3.525-0.872-5.337-1.32
		c-3.654-0.762-7.406-1.665-11.274-2.298c-3.847-0.75-7.795-1.26-11.734-1.825c-3.954-0.43-7.903-0.948-11.815-1.159
		c-3.904-0.346-7.761-0.386-11.49-0.516c-1.865,0.013-3.699,0.024-5.494,0.036c-0.898,0.005-1.787,0.009-2.664,0.013
		c-0.877,0.041-1.742,0.081-2.597,0.12c-1.709,0.079-3.371,0.157-4.979,0.232c-1.605,0.113-3.153,0.274-4.641,0.4
		c-1.486,0.144-2.916,0.239-4.267,0.405c-1.351,0.173-2.632,0.337-3.836,0.49c-1.205,0.154-2.332,0.298-3.375,0.432
		c-1.036,0.175-1.987,0.336-2.847,0.481C1009.967,863.669,1008,864,1008,864s1.954-0.401,5.374-1.103
		c0.856-0.171,1.805-0.358,2.837-0.563c1.04-0.162,2.164-0.339,3.366-0.527c1.202-0.188,2.481-0.388,3.83-0.6
		c1.35-0.204,2.782-0.314,4.27-0.487c1.49-0.151,3.04-0.341,4.649-0.481c1.612-0.104,3.279-0.21,4.992-0.319
		c0.857-0.055,1.726-0.11,2.606-0.166c0.88-0.019,1.772-0.039,2.673-0.058c1.803-0.039,3.646-0.076,5.52-0.083
		c3.746,0.107,7.622,0.126,11.545,0.45c3.933,0.191,7.902,0.686,11.879,1.1c3.954,0.591,7.917,1.125,11.775,1.901
		c3.881,0.656,7.642,1.586,11.304,2.37c3.624,0.945,7.151,1.773,10.43,2.793c1.646,0.485,3.247,0.956,4.796,1.413
		c1.535,0.499,3.019,0.981,4.442,1.445c1.421,0.474,2.795,0.887,4.077,1.355c1.283,0.466,2.5,0.907,3.643,1.322
		s2.213,0.805,3.202,1.163c0.98,0.383,1.88,0.734,2.692,1.053C1131.146,877.265,1133,878,1133,878"/>
	<path clip-path="url(#SVGID_10_)" fill="#FFFFFF" d="M746,860c0,0-0.251,0.047-0.722,0.135c-0.473,0.076-1.16,0.229-2.028,0.428
		c-0.867,0.203-1.919,0.467-3.105,0.83c-1.19,0.352-2.517,0.802-3.956,1.31c-2.88,1.011-6.15,2.434-9.571,4.113
		c-3.426,1.67-6.961,3.694-10.324,5.968c-3.382,2.24-6.586,4.758-9.288,7.425c-1.341,1.341-2.582,2.692-3.661,4.055
		c-1.067,1.368-1.996,2.73-2.71,4.066c-0.179,0.334-0.353,0.662-0.524,0.981c-0.16,0.325-0.288,0.655-0.434,0.969
		c-0.304,0.623-0.519,1.24-0.714,1.827c-0.225,0.576-0.348,1.141-0.473,1.66c-0.063,0.261-0.123,0.51-0.18,0.748
		c-0.033,0.243-0.065,0.475-0.096,0.694c-0.052,0.441-0.132,0.833-0.15,1.178c-0.014,0.347-0.026,0.641-0.035,0.879
		C698.01,897.745,698,898,698,898s-0.009-0.255-0.025-0.734c-0.023-0.479-0.062-1.185,0.046-2.08
		c0.019-0.224,0.038-0.46,0.059-0.707c0.044-0.245,0.091-0.5,0.139-0.768c0.098-0.534,0.192-1.116,0.388-1.714
		c0.165-0.606,0.351-1.25,0.625-1.902c0.234-0.668,0.553-1.337,0.905-2.027c0.684-1.391,1.585-2.813,2.627-4.246
		c1.054-1.427,2.266-2.857,3.629-4.228c2.722-2.744,5.941-5.337,9.345-7.641c3.432-2.264,7.025-4.271,10.503-5.917
		c1.727-0.849,3.453-1.548,5.089-2.203c1.645-0.633,3.213-1.197,4.679-1.662c1.463-0.475,2.823-0.851,4.04-1.135
		c1.212-0.301,2.281-0.507,3.164-0.664c0.883-0.158,1.58-0.244,2.057-0.29C745.746,860.028,746,860,746,860"/>
	<path clip-path="url(#SVGID_10_)" fill="#FFFFFF" d="M350,973c0,0-1.098,0.559-3.157,1.607c-1.017,0.546-2.272,1.219-3.748,2.01
		c-1.45,0.838-3.146,1.749-4.984,2.875c-7.411,4.385-17.697,11.262-28.763,21.048c-5.536,4.879-11.183,10.571-16.609,17.05
		c-2.697,3.253-5.305,6.728-7.798,10.394c-2.474,3.68-4.766,7.595-6.839,11.702c-4.159,8.202-7.161,17.375-8.238,26.963
		c-0.098,1.2-0.237,2.401-0.304,3.608c-0.035,1.208-0.07,2.419-0.105,3.632c0.07,2.416,0.057,4.895,0.22,7.324l0.354,3.637
		l0.181,1.82l0.318,1.807l0.634,3.615c0.252,1.196,0.598,2.372,0.892,3.56c2.351,9.521,7.072,18.337,13.06,25.88
		c6.159,7.426,13.479,13.669,21.255,18.598c7.75,4.982,15.777,8.938,23.578,12.194c7.812,3.243,15.389,5.836,22.442,8.027
		c7.056,2.183,13.587,3.987,19.39,5.528c5.804,1.539,10.884,2.811,15.069,3.85C395.217,1171.811,400,1173,400,1173
		s-4.797-1.13-13.192-3.107c-4.198-0.988-9.293-2.196-15.12-3.664c-5.826-1.463-12.386-3.187-19.458-5.362
		c-7.073-2.166-14.678-4.731-22.529-7.951c-7.839-3.234-15.918-7.17-23.74-12.152c-7.847-4.927-15.263-11.19-21.527-18.68
		c-6.092-7.605-10.927-16.53-13.345-26.177c-0.293-1.205-0.638-2.399-0.888-3.613l-0.628-3.664l-0.313-1.831l-0.177-1.852
		l-0.343-3.7c-0.153-2.465-0.129-4.895-0.188-7.359c0.04-1.229,0.081-2.456,0.121-3.681c0.074-1.222,0.218-2.438,0.324-3.654
		c1.131-9.705,4.207-18.957,8.433-27.204c2.106-4.131,4.432-8.062,6.936-11.753c2.523-3.677,5.159-7.157,7.883-10.414
		c5.478-6.485,11.169-12.173,16.744-17.044c11.131-9.788,21.582-16.467,29.033-20.789c1.853-1.104,3.562-1.994,5.023-2.814
		c1.486-0.774,2.75-1.432,3.775-1.965C348.895,973.545,350,973,350,973"/>
	<path clip-path="url(#SVGID_10_)" fill="#FFFFFF" d="M1616,1292c0,0,4.898,0.438,13.469,1.203
		c8.568,0.796,20.81,1.932,35.497,3.296c7.344,0.677,15.302,1.388,23.726,2.036c8.424,0.671,17.315,1.223,26.519,1.687
		c9.206,0.398,18.725,0.675,28.397,0.647c9.672-0.064,19.492-0.407,29.289-1.122c9.791-0.746,19.552-1.888,29.09-3.454
		c9.537-1.581,18.813-3.739,27.688-6.181c2.205-0.657,4.393-1.311,6.559-1.956c2.174-0.623,4.267-1.428,6.37-2.12
		c4.221-1.359,8.221-3.037,12.162-4.544c1.962-0.775,3.847-1.663,5.73-2.471c1.868-0.846,3.751-1.582,5.516-2.495
		c1.782-0.875,3.534-1.735,5.254-2.579c0.856-0.431,1.722-0.824,2.548-1.271c0.824-0.451,1.641-0.896,2.449-1.338
		c3.233-1.765,6.352-3.422,9.2-5.203c2.874-1.735,5.646-3.313,8.113-5.012c2.487-1.664,4.864-3.155,6.978-4.654
		c2.102-1.519,4.03-2.914,5.772-4.174c1.763-1.234,3.265-2.431,4.571-3.472c1.311-1.036,2.427-1.917,3.33-2.632
		c1.809-1.43,2.773-2.191,2.773-2.191s-0.955,0.774-2.746,2.225c-0.895,0.727-1.999,1.621-3.298,2.675
		c-1.294,1.058-2.782,2.273-4.53,3.53c-1.728,1.283-3.641,2.703-5.724,4.249c-2.099,1.527-4.457,3.048-6.929,4.746
		c-2.45,1.733-5.207,3.347-8.064,5.122c-2.834,1.819-5.962,3.478-9.192,5.266c-0.808,0.445-1.625,0.896-2.45,1.351
		c-0.825,0.453-1.69,0.851-2.547,1.286c-1.721,0.853-3.474,1.723-5.257,2.607c-1.765,0.924-3.649,1.67-5.519,2.526
		c-1.885,0.817-3.771,1.716-5.736,2.502c-3.945,1.528-7.951,3.228-12.177,4.608c-2.106,0.705-4.203,1.52-6.38,2.154
		c-2.17,0.657-4.361,1.321-6.571,1.99c-8.89,2.487-18.186,4.692-27.747,6.319c-9.561,1.609-19.345,2.804-29.163,3.585
		c-9.826,0.675-19.671,0.977-29.36,0.999c-9.691-0.014-19.222-0.33-28.436-0.769c-9.211-0.504-18.107-1.094-26.533-1.802
		c-8.426-0.683-16.383-1.429-23.726-2.137c-7.342-0.706-14.067-1.415-20.027-2.046c-5.96-0.625-11.155-1.17-15.435-1.619
		C1620.892,1292.498,1616,1292,1616,1292"/>
	<path clip-path="url(#SVGID_10_)" fill="#FFFFFF" d="M2029,1114c0,0,2.278,0.236,6.271,0.501c3.992,0.277,9.707,0.504,16.564,0.523
		c6.857,0.019,14.859-0.251,23.392-0.982c8.529-0.732,17.606-1.958,26.468-4.121c4.43-1.064,8.806-2.367,12.971-4.011
		c4.15-1.654,8.136-3.607,11.56-6.119c0.86-0.637,1.686-1.244,2.476-1.954c0.396-0.345,0.809-0.677,1.186-1.028
		c0.34-0.375,0.678-0.748,1.014-1.118c1.363-1.471,2.414-3.196,3.28-4.915c1.694-3.486,2.363-7.202,2.284-10.588
		c-0.078-3.399-0.88-6.465-1.961-9.002c-1.032-2.582-2.551-4.51-3.799-6.052c-1.37-1.443-2.505-2.538-3.397-3.138
		c-0.853-0.649-1.308-0.996-1.308-0.996s0.466,0.331,1.341,0.953c0.912,0.575,2.096,1.622,3.509,3.051
		c1.297,1.522,2.881,3.437,3.994,6.031c1.165,2.546,2.063,5.657,2.184,9.137c0.133,3.463-0.492,7.288-2.188,10.914
		c-0.873,1.796-1.914,3.577-3.336,5.16c-0.352,0.397-0.707,0.798-1.063,1.2c-0.385,0.358-0.789,0.688-1.186,1.037
		c-0.775,0.705-1.658,1.366-2.52,2.01c-3.492,2.586-7.529,4.588-11.726,6.284c-4.209,1.684-8.619,3.022-13.081,4.114
		c-8.941,2.137-18.066,3.32-26.63,4.014c-8.571,0.695-16.6,0.782-23.469,0.679c-6.872-0.109-12.586-0.532-16.575-0.89
		c-1.995-0.18-3.56-0.359-4.624-0.492C2029.568,1114.07,2029,1114,2029,1114"/>
	<path clip-path="url(#SVGID_10_)" fill="#FFFFFF" d="M1765,872c0,0-1.113,0.55-3.061,1.513c-0.49,0.233-1.023,0.515-1.623,0.776
		c-0.606,0.25-1.263,0.519-1.965,0.808c-0.701,0.288-1.449,0.596-2.237,0.919c-0.796,0.303-1.653,0.561-2.536,0.863
		c-0.889,0.285-1.805,0.624-2.773,0.898c-0.972,0.264-1.976,0.537-3.009,0.817c-1.029,0.303-2.102,0.541-3.203,0.771
		c-1.099,0.235-2.222,0.487-3.371,0.692c-2.307,0.363-4.687,0.785-7.128,1.025c-2.433,0.325-4.92,0.465-7.402,0.668
		c-2.488,0.086-4.977,0.21-7.426,0.197c-2.449,0.044-4.858-0.029-7.189-0.064c-2.329-0.077-4.581-0.165-6.712-0.309
		c-2.132-0.133-4.146-0.262-6.003-0.413c-3.717-0.269-6.803-0.609-8.965-0.808C1688.235,880.129,1687,880,1687,880
		s4.958,0.24,12.396,0.601c1.857,0.101,3.871,0.174,6.002,0.246c2.129,0.085,4.375,0.099,6.697,0.171
		c2.322,0.015,4.723,0.064,7.158-0.002c2.439-0.008,4.909-0.157,7.381-0.261c2.466-0.179,4.94-0.296,7.356-0.596
		c2.426-0.217,4.789-0.614,7.082-0.953c1.143-0.19,2.254-0.444,3.352-0.639c1.099-0.198,2.17-0.406,3.198-0.678
		c1.032-0.251,2.037-0.493,3.009-0.729c0.969-0.245,1.885-0.557,2.775-0.816c0.887-0.271,1.743-0.517,2.547-0.778
		c0.795-0.286,1.55-0.558,2.259-0.812c0.71-0.255,1.375-0.494,1.99-0.715c0.609-0.235,1.154-0.491,1.656-0.702
		C1763.857,872.486,1765,872,1765,872"/>
	<path clip-path="url(#SVGID_10_)" fill="#FFFFFF" d="M406.919,1386.078H280.047c0,0-0.424-19.284,6.774-26.536
		c7.198-7.256,14.916-2.083,14.916-2.083s-4.984-6.424,2.859-14.432c7.843-8.011,14.062-0.619,18.467-11.113
		c4.405-10.492,4.979-14.627,10.681-14.627s-5.525-2.912,8.121-20.704c13.646-17.793,22.864-4.281,27.522-6.08
		c4.658-1.798,5.292-9.758,15.348-11.027c10.056-1.265,13.444,6.039,15.561,11.027c2.117,4.992,0.703,9.958,6.623,11.465
		c5.92,1.511,10.742-5.9,13.64,4.281c0,0,15.116-3.382,21.137,5.277c6.022,8.66,7.086,15.149,7.087,21.177
		c0,0,3.592-1.458,7.402,6.284c3.811,7.744-0.845-0.334,10.163,0c11.009,0.335,9.739,7.993,10.585,12.498
		c0.846,4.505-0.846,11.185,4.658,12.473c5.503,1.291,4.656,10.338,8.044,13.531c3.388,3.191,5.927-2.653,11.008,0.576
		c5.082,3.232,4.454,8.013,4.454,8.013H406.919z"/>
	<path clip-path="url(#SVGID_10_)" fill="#DBE2E4" d="M322.862,1335.989c0,0,10.924-2.959,16.75,1.603
		c5.826,4.561,8.702,12.212,8.702,12.212s1.605-8.305,0-12.212s6.847-5.021,13.418-4.887c6.571,0.134,8.264,9.261,8.264,9.261
		s-0.929-3.247,3.77-5.977c4.699-2.729,6.31-6.775,0-6.657c-6.309,0.119-7.198-2.111-11.623-7.56
		c-4.425-5.448-12.431-7.609-19.668-6.946l-7.236,0.662c0,0,16.074,1.802,21.283,9.509c0,0-9.243,4.15-10.164,5.784
		c-0.92,1.634-2.613,5.208-2.613,5.208S331.194,1330.673,322.862,1335.989"/>
	<path clip-path="url(#SVGID_10_)" fill="#DBE2E4" d="M376.56,1364.593c0,0-0.77-4.688,5.436-10.388
		c6.207-5.7,10.137-3.197,10.137-3.197s7.741-6.94,0-11.709c0,0,8.99,1.781,11.634,6.975l2.643,5.193c0,0,7.026-2.477,11.558,0.455
		c4.532,2.934,8.764,8.438,8.342,12.671c0,0,6.04,2.543,5.984,5.506c-0.055,2.964-1.788,7.622-1.788,7.622s3.425-3.809,8.929,0
		c5.506,3.81,13.083,1.36,6.086,8.357s-38.602,0-38.602,0s9.229-1.372,8.383-8.253c-0.846-6.88-5.63-6.881-8.742-6.034
		c-3.113,0.848,4.897,0.689,5.973-2.619c1.075-3.308,3.368-5.001-2.648-6.482c-6.016-1.483-13.846-0.873-13.953,4.75
		c0,0,4.338-8.552-0.001-10.779C391.59,1354.432,379.734,1351.044,376.56,1364.593"/>
	<path clip-path="url(#SVGID_10_)" fill="#DBE2E4" d="M376.56,1374.087c0,0,1.504-2.786,8.479,0
		c6.976,2.786,7.542,6.596,7.542,6.596l-0.448,3.388C392.132,1384.07,388.626,1374.688,376.56,1374.087"/>
	<path clip-path="url(#SVGID_10_)" fill="#DBE2E4" d="M369.387,1290.503c0,0,6.538,5.64,7.173,11.073c0,0-10.07-2.187-12.551,2.469
		c-2.481,4.658-2.277,8.914-2.277,8.914s0.209-7.219,7.413-7.219c7.203,0,12.845,1.737,13.623,7.219
		c0.777,5.483-0.665,9.076-0.665,9.076s3-3.197,10.478-2.125s12.799,2.125,12.799,2.125s-5.034-5.13-12.799-7.325
		c0,0-4.564-3.678-0.448-8.44c4.116-4.763,10.566-4.693,10.566-4.693s-1.704-14.007-5.934-17.517
		c-4.23-3.509-4.728-3.563-3.469,6.095c1.258,9.657-4.513,11.492-5.649,11.422c-1.137-0.069-4.237-1.2-5.651,0
		C380.582,1302.775,383.173,1296.015,369.387,1290.503"/>
	<path clip-path="url(#SVGID_10_)" fill="#DBE2E4" d="M356.197,1356.093c0,0-1.228-2.445,5.651-4.171
		c6.878-1.724,7.934,2.283,7.934,2.283S356.793,1353.52,356.197,1356.093"/>
	<path clip-path="url(#SVGID_10_)" fill="#DBE2E4" d="M420.559,1306.249c0,0,3.987,7.171,0,9.683l-3.987,2.511
		c0,0,9.62,1.53,6.503,6.904c-3.117,5.374-0.749,6.752-5.108,6.91c0,0-3.16-4.703-7.571-6.296c-4.41-1.592,6.936,6.829,0.628,10.028
		c-6.308,3.2-9.392,0-9.392,0s3.682,0.835,8.252,5.828c4.571,4.992,1.112,0.132,11.097-2.518c9.986-2.651,17.498-1.964,24.539,3.408
		c7.042,5.373,7.361,9.215,7.361,9.215l4.79-9.957c0,0-0.691-6.278-4.79-7.771c-4.098-1.492,1.167,5.888,0,7.771
		c-1.167,1.882-3.182-4.519-6.197-5.977c0,0,2.314-3.458,0-11.828c-2.313-8.371-2.683-10.189-4.988-12.635
		c-2.305-2.447,1.615,9.034-2.481,13.82c-4.096,4.786-5.171,3.938-6.921-4.87C430.543,1311.667,420.559,1306.249,420.559,1306.249"
		/>
	<path clip-path="url(#SVGID_10_)" fill="#DBE2E4" d="M474.579,1346.273c0,0,1.695,17.897-8.468,16.415
		c-10.162-1.482-9.341-6.205-16.526-6.596c-7.186-0.392-9.726,6.596-9.726,6.596s4.998-1.719,10.121,4.75
		c5.123,6.47,1.736,10.277,9.357,5.41c7.62-4.867,12.703-5.294,13.549,0c0.846,5.294-3.388,9.104-3.388,9.104s6.774-4.124,8.891,0
		c2.117,4.125,3.811,4.125,3.811,4.125h20.323c0,0,0.425-4.125-7.62-4.125c-8.046,0-14.819-0.423-13.549-7.197
		c1.269-6.774-4.234-12.067-4.234-12.067S476.678,1352.123,474.579,1346.273"/>
	<path clip-path="url(#SVGID_10_)" fill="#FFFFFF" d="M2129.059,1393.323h96.789c0,0,0.323-14.711-5.168-20.244
		c-5.492-5.535-11.379-1.589-11.379-1.589s3.802-4.9-2.182-11.01c-5.983-6.111-10.728-0.473-14.088-8.479
		c-3.361-8.004-3.799-11.158-8.148-11.158s4.215-2.222-6.196-15.795c-10.41-13.573-17.442-3.266-20.995-4.638
		c-3.554-1.373-4.037-7.445-11.709-8.413c-7.672-0.965-10.256,4.607-11.871,8.413c-1.614,3.809-0.537,7.596-5.053,8.746
		c-4.516,1.153-8.195-4.502-10.406,3.266c0,0-11.53-2.579-16.125,4.026c-4.594,6.607-5.405,11.557-5.406,16.155
		c0,0-2.74-1.112-5.646,4.794c-2.907,5.908,0.645-0.255-7.754,0c-8.398,0.256-7.429,6.098-8.075,9.534
		c-0.645,3.437,0.646,8.533-3.553,9.516c-4.198,0.985-3.552,7.887-6.137,10.322c-2.584,2.436-4.521-2.024-8.398,0.439
		c-3.876,2.467-3.397,6.113-3.397,6.113H2129.059z"/>
	<path clip-path="url(#SVGID_10_)" fill="#DBE2E4" d="M2193.185,1355.111c0,0-8.335-2.257-12.779,1.223
		c-4.444,3.479-6.638,9.316-6.638,9.316s-1.225-6.336,0-9.316c1.224-2.981-5.225-3.831-10.236-3.729
		c-5.013,0.103-6.305,7.065-6.305,7.065s0.709-2.478-2.877-4.56c-3.584-2.081-4.813-5.169,0-5.078
		c4.813,0.09,5.492-1.611,8.867-5.768c3.377-4.156,9.483-5.806,15.004-5.3l5.521,0.506c0,0-12.263,1.374-16.237,7.254
		c0,0,7.052,3.167,7.755,4.413c0.701,1.246,1.993,3.973,1.993,3.973S2186.827,1351.056,2193.185,1355.111"/>
	<path clip-path="url(#SVGID_10_)" fill="#DBE2E4" d="M2152.22,1376.933c0,0,0.588-3.576-4.147-7.925
		c-4.736-4.349-7.734-2.439-7.734-2.439s-5.904-5.295,0-8.932c0,0-6.857,1.358-8.875,5.32l-2.016,3.963c0,0-5.359-1.892-8.816,0.347
		c-3.459,2.237-6.688,6.437-6.365,9.666c0,0-4.607,1.94-4.565,4.201c0.042,2.26,1.365,5.814,1.365,5.814s-2.613-2.905-6.813,0
		c-4.199,2.905-9.979,1.037-4.642,6.375c5.337,5.338,29.448,0,29.448,0s-7.04-1.047-6.395-6.296s4.294-5.25,6.669-4.604
		c2.374,0.646-3.735,0.526-4.557-1.998c-0.821-2.523-2.569-3.815,2.021-4.946c4.588-1.131,10.563-0.666,10.644,3.624
		c0,0-3.31-6.522,0.001-8.223S2149.797,1366.597,2152.22,1376.933"/>
	<path clip-path="url(#SVGID_10_)" fill="#DBE2E4" d="M2152.22,1384.175c0,0-1.147-2.125-6.47,0
		c-5.321,2.125-5.753,5.032-5.753,5.032l0.341,2.585C2140.338,1391.792,2143.014,1384.634,2152.22,1384.175"/>
	<path clip-path="url(#SVGID_10_)" fill="#DBE2E4" d="M2157.691,1320.411c0,0-4.988,4.302-5.473,8.447c0,0,7.683-1.668,9.575,1.884
		c1.893,3.553,1.737,6.801,1.737,6.801s-0.159-5.508-5.655-5.508c-5.495,0-9.8,1.325-10.393,5.508
		c-0.593,4.182,0.507,6.923,0.507,6.923s-2.289-2.439-7.993-1.621c-5.705,0.818-9.764,1.621-9.764,1.621s3.84-3.913,9.764-5.588
		c0,0,3.481-2.806,0.341-6.438c-3.139-3.635-8.061-3.581-8.061-3.581s1.301-10.687,4.527-13.363
		c3.228-2.677,3.606-2.718,2.646,4.648c-0.959,7.368,3.443,8.769,4.311,8.715c0.866-0.054,3.231-0.915,4.311,0
		C2149.15,1329.773,2147.174,1324.615,2157.691,1320.411"/>
	<path clip-path="url(#SVGID_10_)" fill="#DBE2E4" d="M2167.754,1370.447c0,0,0.937-1.864-4.312-3.181
		c-5.247-1.315-6.053,1.741-6.053,1.741S2167.299,1368.484,2167.754,1370.447"/>
	<path clip-path="url(#SVGID_10_)" fill="#DBE2E4" d="M2118.652,1332.424c0,0-3.042,5.471,0,7.386l3.043,1.915
		c0,0-7.341,1.168-4.963,5.268s0.572,5.151,3.897,5.271c0,0,2.411-3.588,5.776-4.803c3.364-1.215-5.291,5.209-0.479,7.65
		s7.165,0,7.165,0s-2.809,0.637-6.296,4.446c-3.487,3.809-0.847,0.101-8.465-1.921c-7.618-2.022-13.35-1.497-18.722,2.601
		c-5.371,4.099-5.615,7.029-5.615,7.029l-3.653-7.597c0,0,0.526-4.788,3.653-5.928c3.127-1.138-0.89,4.493,0,5.928
		c0.891,1.437,2.429-3.445,4.728-4.559c0,0-1.765-2.638,0-9.023c1.765-6.387,2.047-7.773,3.806-9.639
		c1.76-1.867-1.231,6.893,1.893,10.543c3.125,3.651,3.945,3.005,5.281-3.716C2111.035,1336.557,2118.652,1332.424,2118.652,1332.424
		"/>
	<path clip-path="url(#SVGID_10_)" fill="#DBE2E4" d="M2077.441,1362.957c0,0-1.293,13.654,6.461,12.523
		c7.752-1.132,7.125-4.734,12.607-5.032c5.48-0.299,7.42,5.032,7.42,5.032s-3.814-1.313-7.722,3.624
		c-3.908,4.935-1.324,7.84-7.138,4.126c-5.813-3.713-9.691-4.038-10.336,0c-0.646,4.039,2.584,6.946,2.584,6.946
		s-5.169-3.146-6.783,0c-1.615,3.146-2.906,3.146-2.906,3.146h-15.505c0,0-0.324-3.146,5.813-3.146
		c6.138,0,11.306-0.322,10.337-5.49c-0.969-5.169,3.23-9.206,3.23-9.206S2075.841,1367.42,2077.441,1362.957"/>
	<path clip-path="url(#SVGID_10_)" fill="#DBE2E4" d="M21.896,1300.855c0.929,2.482,1.711,4.837,3.355,6.964
		c1.552,2.008,3.275,3.775,5.438,5.134c2.115,1.328,5.034,0.458,6.264-1.643c1.383-2.362,0.329-4.742-1.643-6.264
		c-0.974-0.752-2.6-2.392-3.703-3.582c-1.333-1.44-2.916-2.437-4.331-3.741C25.084,1295.704,20.695,1297.647,21.896,1300.855"/>
	<path clip-path="url(#SVGID_10_)" fill="#DBE2E4" d="M61.713,1307.287c1.892,1.604,3.435,3.901,5.141,5.734
		c1.924,2.067,3.655,4.082,5.906,5.811c3.462,2.656,8.73-2.61,6.072-6.072c-1.741-2.267-3.721-3.987-5.936-5.781
		c-1.076-0.871-2.165-1.73-3.3-2.522c-1.265-0.882-2.698-1.385-3.963-2.249C62.607,1300.142,58.914,1304.912,61.713,1307.287"/>
	<path clip-path="url(#SVGID_10_)" fill="#DBE2E4" d="M82.702,1341.298c1.781,1.782,3.259,3.502,5.607,4.576
		c2.445,1.118,5.013,1.543,7.691,1.548c5.713,0.012,5.689-8.691,0-8.844c-3.105-0.083-6.611-0.959-9.36-2.384
		C83.413,1334.52,80.019,1338.614,82.702,1341.298"/>
	<path clip-path="url(#SVGID_10_)" fill="#DBE2E4" d="M116.173,1331.998c3.91,0.673,7.853,1.018,11.827,0.971
		c5.118-0.061,5.118-7.876,0-7.938c-3.974-0.047-7.917,0.297-11.827,0.97C113.192,1326.516,113.192,1331.485,116.173,1331.998"/>
	<path clip-path="url(#SVGID_10_)" fill="#DBE2E4" d="M142.446,1346.658c1.047,0.639,1.92,1.525,3.118,1.896
		c1.179,0.365,2.351,0.519,3.578,0.632c2.558,0.237,5.553-0.371,7.954-1.209c5.11-1.782,2.999-8.752-2.193-7.956
		c-3.144,0.483-6.882,1.979-10.085,1.011C141.409,1340.002,139.51,1344.865,142.446,1346.658"/>
	<path clip-path="url(#SVGID_10_)" fill="#DBE2E4" d="M169.07,1334.375c4.191,0.728,8.947,0.994,13.035-0.367
		c5.202-1.731,2.992-8.777-2.209-8.016c-3.593,0.526-7.25,1.009-10.826,1.633C165.716,1328.211,165.713,1333.792,169.07,1334.375"/>
	<path clip-path="url(#SVGID_10_)" fill="#DBE2E4" d="M202.182,1347.968c5.207,1.307,11.567-0.214,15.948-3.324
		c4.363-3.1,0.543-10.038-4.259-7.286c-3.785,2.169-7.534,3.414-11.689,4.675C199.343,1342.894,199.143,1347.206,202.182,1347.968"
		/>
	<path clip-path="url(#SVGID_10_)" fill="#DBE2E4" d="M2303.596,1356.599c-0.462,0.214-1.878,0.236-2.529,0.436
		c-1.461,0.447-2.868,1.041-4.258,1.673c-2.39,1.087-4.767,2.203-7.183,3.232c-5.44,2.315-0.606,11.306,4.748,8.122
		c2.247-1.337,4.435-2.761,6.611-4.21c1.026-0.683,1.995-1.426,2.962-2.193c0.767-0.609,1.708-1.843,2.457-2.257
		C2309.591,1359.642,2306.795,1355.115,2303.596,1356.599"/>
	<path clip-path="url(#SVGID_10_)" fill="#DBE2E4" d="M2284,1394.766l0.318,0.007c3.578,0.081,3.569-5.465,0-5.545
		c-0.045-0.001-0.088-0.002-0.132-0.003l1.964,0.813c-1.193-1.33-3.555-1.592-5.254-1.819c-0.811-0.109-1.621-0.218-2.431-0.327
		c-0.472-0.14-0.339-0.073,0.397,0.199c-0.706-0.41-1.469-0.616-2.285-0.618c-1.062,0-1.844,0.313-2.786,0.75
		c-2.862,1.325-2.862,6.229,0,7.555c0.517,0.24,1.017,0.513,1.582,0.588c0.803,0.217,1.604,0.217,2.408,0
		c1.297-0.544,1.441-0.606,0.434-0.188c0.847-0.251,1.806-0.277,2.681-0.396c1.699-0.228,4.061-0.488,5.254-1.818l-1.964,0.813
		c0.044-0.001,0.087-0.002,0.132-0.003c3.569-0.081,3.578-5.626,0-5.545l-0.318,0.007
		C2280.434,1389.314,2280.434,1394.685,2284,1394.766"/>
	<path clip-path="url(#SVGID_10_)" fill="#DBE2E4" d="M2250,1375.781c0.472-0.002,1.07-0.11,1.469-0.389
		c1.817-1.272,1.745-3.527,0-4.811c-0.183-0.135-1.357-0.754-0.423-0.192c0.437,0.567,0.874,1.136,1.312,1.703
		c-0.565-2.2-3.395-2.855-5.271-3.459c-1.709-0.549-3.422-1.085-5.137-1.617c0.631,0.366,1.261,0.734,1.891,1.102
		c-1.202-0.985-2.25-1.464-3.84-1.509c-5.167-0.146-5.691,7.066-1.167,8.625c0.089,0.03,0.178,0.061,0.268,0.092
		c0.265,0.091,4.066,0.253,1.938,0.121c1.071,0.066,2.142,0.135,3.213,0.206c2.03,0.134,5.849,0.991,7.372-0.785
		c-0.672,0.279-1.344,0.557-2.018,0.836c-0.369,0.024-0.586-0.107-0.947-0.312c-0.188-1.459-0.376-2.917-0.564-4.375
		c-0.004,0.004-0.008,0.007-0.011,0.011c0.655-0.272,1.312-0.544,1.968-0.816c-0.017,0.002-0.034,0.004-0.051,0.007
		C2246.551,1370.653,2246.311,1375.798,2250,1375.781"/>
	<path clip-path="url(#SVGID_10_)" fill="#DBE2E4" d="M2228.739,1390.318c-1.863-0.653-3.435-1.634-5.401-2.145
		c-2.197-0.569-4.632-0.655-6.883-0.497c-4.178,0.294-7.72,1.726-10.26,5.1c-3.066,4.072,3.497,8.827,6.92,5.34
		c1.499-1.527,3.335-1.945,5.392-2.294c2.438-0.415,6.373-0.784,8.753-0.141C2230.762,1396.629,2232.087,1391.492,2228.739,1390.318
		"/>
	<path clip-path="url(#SVGID_10_)" fill="#DBE2E4" d="M2481.423,1155.698c0.116,0.07,0.231,0.141,0.347,0.211
		c-0.384-0.384-0.768-0.768-1.152-1.151c0.613,0.825,1.273,1.4,2.104,1.991c0.261,0.187,0.993,0.853,1.456,1.28
		c0.204,0.188,0.399,0.383,0.588,0.585c0.867,0.897-0.333-0.592,0.334,0.432c0.08,0.123,0.56,1.28,0.233,0.397
		c0.23,0.623,0.453,1.247,0.742,1.852c0.867,1.818,3.295,2.596,5.135,2.09c2.406-0.662,3.808-3.198,3.176-5.594
		c-0.68-2.572-2.798-4.489-4.879-5.993c-0.902-0.651-2.106-1.253-3.182-1.483c-0.405-0.087-0.806-0.205-1.211-0.293
		c-0.444-0.063-0.889-0.12-1.332-0.177c-0.916,0.265-1.176,0.274-0.781,0.03c-1.356-0.17-2.68,1.079-3.014,2.294
		C2479.609,1153.539,2480.224,1154.969,2481.423,1155.698"/>
	<path clip-path="url(#SVGID_10_)" fill="#DBE2E4" d="M2508.612,1163.375c0.225,0.164,0.448,0.329,0.672,0.495
		c-0.209-0.28-0.419-0.563-0.629-0.844c0.15,0.538,0.423,1.004,0.816,1.401c0.384,0.482,0.923,1.185,1.234,1.636
		c1.067,1.549,1.716,3.026,1.919,4.937l8.152-2.207c-0.398-0.738-0.853-1.425-1.325-2.116c-0.177-0.253-0.341-0.513-0.496-0.779
		c0.149,0.43,0.176,0.427,0.082-0.011c-0.724-4.684-8.501-3.558-8.226,1.113c0.138,2.329,1.373,4.186,2.41,6.207
		c2.311,4.507,9.238,1.336,7.995-3.369c-0.764-2.895-2.003-5.442-3.951-7.716c-0.757-0.884-1.811-1.566-2.786-2.188
		c-0.578-0.369-1.285-0.555-1.92-0.814c-0.972-0.128-1.125-0.149-0.463-0.063c-0.235-0.146-0.473-0.288-0.71-0.431
		C2508.284,1156.752,2505.822,1161.323,2508.612,1163.375"/>
	<path clip-path="url(#SVGID_10_)" fill="#DBE2E4" d="M2496.045,1187.956c2.576,2.772,2.53,8.241,1.615,11.848
		c-1.607,6.339,8.524,7.804,8.84,1.196c0.333-6.975-0.826-13.516-7.104-17.389
		C2496.646,1181.916,2493.949,1185.701,2496.045,1187.956"/>
	<path clip-path="url(#SVGID_10_)" fill="#DBE2E4" d="M2518.625,1205.388c0.198,0.24,0.373,0.497,0.524,0.77
		c0.024-1.211-0.021-1.22-0.135-0.028c0.092,0.771,0.202,1.535,0.264,2.307c0.142,1.77-0.195,3.674-0.497,5.401
		c-0.41,2.347,0.594,4.705,3.055,5.382c2.289,0.629,4.764-0.754,5.383-3.056c1.405-5.228-0.366-10.497-4.274-14.108
		C2520.754,1200.031,2516.672,1202.793,2518.625,1205.388"/>
	<path clip-path="url(#SVGID_10_)" fill="#DBE2E4" d="M2497.234,1229c0.221,1.673,0.179,3.762-0.112,5.431
		c-0.395,2.266-1.69,4.233-2.13,6.464c-0.729,3.7,4.051,7.519,6.947,4.045c2.262-2.716,2.918-5.972,3.082-9.439
		c0.161-3.406-0.901-5.943-3.066-8.456C2500.477,1225.328,2496.919,1226.609,2497.234,1229"/>
	<path clip-path="url(#SVGID_10_)" fill="#DBE2E4" d="M2517.408,1248.285c-2.107,5.034-5.575,10.187-6.597,15.561
		c-0.915,4.813,5.178,7.593,7.938,3.347c1.818-2.795,2.779-6.241,3.485-9.469c0.672-3.068,1.374-6.374,0.356-9.438
		C2521.693,1245.584,2518.411,1245.889,2517.408,1248.285"/>
	<path clip-path="url(#SVGID_10_)" fill="#DBE2E4" d="M2487.156,1267.941c-5.203,1.512-9.51,6.553-10.3,11.916
		c-0.804,5.456,6.28,7.523,8.287,2.285c0.609-1.592,1.011-3.302,1.756-4.832c0.804-1.646,1.944-2.894,3.343-4.068
		C2492.738,1271.148,2490.071,1267.095,2487.156,1267.941"/>
	<path clip-path="url(#SVGID_10_)" fill="#DBE2E4" d="M2501.383,1298.234c-2.734,1.655-5.274,3.638-7.888,5.473
		c-2.778,1.951-5.789,4.192-8.075,6.713c-4.392,4.845,2.315,11.55,7.16,7.16c4.71-4.27,8.066-9.902,12.686-14.314
		C2507.906,1300.741,2504.497,1296.351,2501.383,1298.234"/>
	<path clip-path="url(#SVGID_10_)" fill="#DBE2E4" d="M2460.265,1300.333c1.591-0.567-0.493-0.026-0.903,0.078
		c-0.854,0.219-1.681,0.485-2.553,0.627c-2.04,0.334-4.209,1.809-6.013,2.751c-4.068,2.125-8.366,3.646-12.446,5.678
		c-5.523,2.752-1.551,10.894,4.046,9.596c4.377-1.016,8.393-4.544,11.983-7.082c1.874-1.325,3.704-2.685,5.482-4.133
		c0.59-0.481,1.013-1.087,1.574-1.596c0.814-0.735,2.629-1.538,0.299-0.585C2464.951,1304.353,2463.681,1299.114,2460.265,1300.333"
		/>
</g>
<g>
	<defs>
		<rect id="SVGID_11_" x="2339.967" y="773.462" width="7.2" height="173.146"/>
	</defs>
	<clipPath id="SVGID_12_">
		<use xlink:href="#SVGID_11_"  overflow="visible"/>
	</clipPath>
	
		<linearGradient id="SVGID_13_" gradientUnits="userSpaceOnUse" x1="-0.0015" y1="1439.998" x2="0.9985" y2="1439.998" gradientTransform="matrix(0 -65.9866 65.9866 0 -92676.9453 940.875)">
		<stop  offset="0" style="stop-color:#FFFFFF"/>
		<stop  offset="0.2332" style="stop-color:#DCCFC5"/>
		<stop  offset="0.4964" style="stop-color:#B99E8A"/>
		<stop  offset="0.7213" style="stop-color:#A07B5F"/>
		<stop  offset="0.8963" style="stop-color:#906545"/>
		<stop  offset="1" style="stop-color:#8A5D3B"/>
	</linearGradient>
	<rect x="2339.967" y="773.462" clip-path="url(#SVGID_12_)" fill="url(#SVGID_13_)" width="7.2" height="173.146"/>
</g>
<polygon fill="#67C0B1" points="2384.665,795.817 2343.566,724.634 2302.469,795.817 "/>
<polygon fill="#67C0B1" points="2374.623,751.529 2343.567,697.739 2312.512,751.529 "/>
<polygon fill="#67C0B1" points="2365.612,716.831 2343.567,678.647 2321.521,716.831 "/>
<g>
	<defs>
		<rect id="SVGID_14_" x="1035.699" y="726.241" width="2.774" height="66.71"/>
	</defs>
	<clipPath id="SVGID_15_">
		<use xlink:href="#SVGID_14_"  overflow="visible"/>
	</clipPath>
	
		<linearGradient id="SVGID_16_" gradientUnits="userSpaceOnUse" x1="0.0122" y1="1440.0156" x2="1.0122" y2="1440.0156" gradientTransform="matrix(0 -25.4234 25.4234 0 -35573.0078 791.0781)">
		<stop  offset="0" style="stop-color:#FFFFFF"/>
		<stop  offset="0.2332" style="stop-color:#DCCFC5"/>
		<stop  offset="0.4964" style="stop-color:#B99E8A"/>
		<stop  offset="0.7213" style="stop-color:#A07B5F"/>
		<stop  offset="0.8963" style="stop-color:#906545"/>
		<stop  offset="1" style="stop-color:#8A5D3B"/>
	</linearGradient>
	<rect x="1035.699" y="726.241" clip-path="url(#SVGID_15_)" fill="url(#SVGID_16_)" width="2.774" height="66.71"/>
</g>
<polygon fill="#67C0B1" points="1052.92,734.854 1037.086,707.429 1021.251,734.854 "/>
<polygon fill="#67C0B1" points="1049.051,717.791 1037.086,697.067 1025.121,717.791 "/>
<polygon fill="#67C0B1" points="1045.579,704.423 1037.085,689.711 1028.592,704.423 "/>
<g>
	<defs>
		<rect id="SVGID_17_" x="294.492" y="854.411" width="2.774" height="66.71"/>
	</defs>
	<clipPath id="SVGID_18_">
		<use xlink:href="#SVGID_17_"  overflow="visible"/>
	</clipPath>
	
		<linearGradient id="SVGID_19_" gradientUnits="userSpaceOnUse" x1="0.0122" y1="1440.0156" x2="1.0122" y2="1440.0156" gradientTransform="matrix(0 -25.4234 25.4234 0 -36314.2266 919.25)">
		<stop  offset="0" style="stop-color:#FFFFFF"/>
		<stop  offset="0.2332" style="stop-color:#DCCFC5"/>
		<stop  offset="0.4964" style="stop-color:#B99E8A"/>
		<stop  offset="0.7213" style="stop-color:#A07B5F"/>
		<stop  offset="0.8963" style="stop-color:#906545"/>
		<stop  offset="1" style="stop-color:#8A5D3B"/>
	</linearGradient>
	<rect x="294.492" y="854.411" clip-path="url(#SVGID_18_)" fill="url(#SVGID_19_)" width="2.774" height="66.71"/>
</g>
<polygon fill="#67C0B1" points="311.713,863.024 295.879,835.599 280.044,863.024 "/>
<polygon fill="#67C0B1" points="307.844,845.961 295.879,825.236 283.914,845.961 "/>
<polygon fill="#67C0B1" points="304.373,832.592 295.879,817.881 287.386,832.592 "/>
<g>
	<defs>
		<rect id="SVGID_20_" x="1408.608" y="732.988" width="2.773" height="66.71"/>
	</defs>
	<clipPath id="SVGID_21_">
		<use xlink:href="#SVGID_20_"  overflow="visible"/>
	</clipPath>
	
		<linearGradient id="SVGID_22_" gradientUnits="userSpaceOnUse" x1="0.0112" y1="1440.0146" x2="1.0114" y2="1440.0146" gradientTransform="matrix(0 -25.4234 25.4234 0 -35200.0859 797.8281)">
		<stop  offset="0" style="stop-color:#FFFFFF"/>
		<stop  offset="0.2332" style="stop-color:#DCCFC5"/>
		<stop  offset="0.4964" style="stop-color:#B99E8A"/>
		<stop  offset="0.7213" style="stop-color:#A07B5F"/>
		<stop  offset="0.8963" style="stop-color:#906545"/>
		<stop  offset="1" style="stop-color:#8A5D3B"/>
	</linearGradient>
	<rect x="1408.607" y="732.988" clip-path="url(#SVGID_21_)" fill="url(#SVGID_22_)" width="2.774" height="66.71"/>
</g>
<polygon fill="#67C0B1" points="1425.829,741.602 1409.995,714.176 1394.16,741.602 "/>
<polygon fill="#67C0B1" points="1421.96,724.538 1409.995,703.814 1398.03,724.538 "/>
<polygon fill="#67C0B1" points="1418.488,711.169 1409.994,696.458 1401.502,711.169 "/>
<g>
	<defs>
		<rect id="SVGID_23_" x="78.294" y="1009.409" width="10.691" height="257.103"/>
	</defs>
	<clipPath id="SVGID_24_">
		<use xlink:href="#SVGID_23_"  overflow="visible"/>
	</clipPath>
	
		<linearGradient id="SVGID_25_" gradientUnits="userSpaceOnUse" x1="0" y1="1440" x2="1" y2="1440" gradientTransform="matrix(0 -97.9832 -97.9832 0 141179.5 1258.0625)">
		<stop  offset="0" style="stop-color:#FFFFFF"/>
		<stop  offset="0.2332" style="stop-color:#DCCFC5"/>
		<stop  offset="0.4964" style="stop-color:#B99E8A"/>
		<stop  offset="0.7213" style="stop-color:#A07B5F"/>
		<stop  offset="0.8963" style="stop-color:#906545"/>
		<stop  offset="1" style="stop-color:#8A5D3B"/>
	</linearGradient>
	<rect x="78.294" y="1009.409" clip-path="url(#SVGID_24_)" fill="url(#SVGID_25_)" width="10.691" height="257.103"/>
</g>
<polygon fill="#67C0B1" points="22.613,1042.604 83.639,936.905 144.665,1042.604 "/>
<polygon fill="#67C0B1" points="37.525,976.841 83.639,896.969 129.753,976.841 "/>
<polygon fill="#67C0B1" points="50.904,925.317 83.639,868.619 116.374,925.317 "/>
<g>
	<defs>
		<rect id="SVGID_26_" x="2437.579" y="1042.409" width="10.69" height="257.103"/>
	</defs>
	<clipPath id="SVGID_27_">
		<use xlink:href="#SVGID_26_"  overflow="visible"/>
	</clipPath>
	
		<linearGradient id="SVGID_28_" gradientUnits="userSpaceOnUse" x1="0" y1="1440" x2="1" y2="1440" gradientTransform="matrix(0 -97.9832 97.9832 0 -138652.875 1291.0625)">
		<stop  offset="0" style="stop-color:#FFFFFF"/>
		<stop  offset="0.2332" style="stop-color:#DCCFC5"/>
		<stop  offset="0.4964" style="stop-color:#B99E8A"/>
		<stop  offset="0.7213" style="stop-color:#A07B5F"/>
		<stop  offset="0.8963" style="stop-color:#906545"/>
		<stop  offset="1" style="stop-color:#8A5D3B"/>
	</linearGradient>
	<rect x="2437.579" y="1042.409" clip-path="url(#SVGID_27_)" fill="url(#SVGID_28_)" width="10.69" height="257.103"/>
</g>
<polygon fill="#67C0B1" points="2503.95,1075.604 2442.924,969.905 2381.898,1075.604 "/>
<polygon fill="#67C0B1" points="2489.038,1009.841 2442.924,929.969 2396.811,1009.841 "/>
<polygon fill="#67C0B1" points="2475.659,958.317 2442.924,901.619 2410.189,958.317 "/>
<g>
	<defs>
		<rect id="SVGID_29_" x="2249.326" y="791.837" width="5.076" height="122.075"/>
	</defs>
	<clipPath id="SVGID_30_">
		<use xlink:href="#SVGID_29_"  overflow="visible"/>
	</clipPath>
	
		<linearGradient id="SVGID_31_" gradientUnits="userSpaceOnUse" x1="0.0029" y1="1440.0039" x2="1.0029" y2="1440.0039" gradientTransform="matrix(0 -46.5235 46.5235 0 -64742.2109 910.0625)">
		<stop  offset="0" style="stop-color:#FFFFFF"/>
		<stop  offset="0.2332" style="stop-color:#DCCFC5"/>
		<stop  offset="0.4964" style="stop-color:#B99E8A"/>
		<stop  offset="0.7213" style="stop-color:#A07B5F"/>
		<stop  offset="0.8963" style="stop-color:#906545"/>
		<stop  offset="1" style="stop-color:#8A5D3B"/>
	</linearGradient>
	<rect x="2249.326" y="791.837" clip-path="url(#SVGID_30_)" fill="url(#SVGID_31_)" width="5.075" height="122.075"/>
</g>
<polygon fill="#67C0B1" points="2280.84,807.599 2251.864,757.411 2222.889,807.599 "/>
<polygon fill="#67C0B1" points="2273.76,776.373 2251.863,738.449 2229.969,776.373 "/>
<g>
	<defs>
		<rect id="SVGID_32_" x="1674.941" y="679.735" width="5.076" height="122.075"/>
	</defs>
	<clipPath id="SVGID_33_">
		<use xlink:href="#SVGID_32_"  overflow="visible"/>
	</clipPath>
	
		<linearGradient id="SVGID_34_" gradientUnits="userSpaceOnUse" x1="0.0029" y1="1440.0049" x2="1.0027" y2="1440.0049" gradientTransform="matrix(0 -46.5235 46.5235 0 -65316.5859 797.9688)">
		<stop  offset="0" style="stop-color:#FFFFFF"/>
		<stop  offset="0.2332" style="stop-color:#DCCFC5"/>
		<stop  offset="0.4964" style="stop-color:#B99E8A"/>
		<stop  offset="0.7213" style="stop-color:#A07B5F"/>
		<stop  offset="0.8963" style="stop-color:#906545"/>
		<stop  offset="1" style="stop-color:#8A5D3B"/>
	</linearGradient>
	<rect x="1674.941" y="679.735" clip-path="url(#SVGID_33_)" fill="url(#SVGID_34_)" width="5.076" height="122.076"/>
</g>
<polygon fill="#67C0B1" points="1706.455,695.497 1677.479,645.309 1648.504,695.497 "/>
<polygon fill="#67C0B1" points="1699.375,664.271 1677.479,626.347 1655.584,664.271 "/>
<g>
	<defs>
		<rect id="SVGID_35_" x="1931.455" y="649.196" width="5.076" height="122.076"/>
	</defs>
	<clipPath id="SVGID_36_">
		<use xlink:href="#SVGID_35_"  overflow="visible"/>
	</clipPath>
	
		<linearGradient id="SVGID_37_" gradientUnits="userSpaceOnUse" x1="0.0029" y1="1440.0039" x2="1.0029" y2="1440.0039" gradientTransform="matrix(0 -46.5235 46.5235 0 -65060.0547 767.4375)">
		<stop  offset="0" style="stop-color:#FFFFFF"/>
		<stop  offset="0.2332" style="stop-color:#DCCFC5"/>
		<stop  offset="0.4964" style="stop-color:#B99E8A"/>
		<stop  offset="0.7213" style="stop-color:#A07B5F"/>
		<stop  offset="0.8963" style="stop-color:#906545"/>
		<stop  offset="1" style="stop-color:#8A5D3B"/>
	</linearGradient>
	<rect x="1931.455" y="649.196" clip-path="url(#SVGID_36_)" fill="url(#SVGID_37_)" width="5.076" height="122.076"/>
</g>
<polygon fill="#67C0B1" points="1962.97,664.957 1933.993,614.77 1905.018,664.957 "/>
<polygon fill="#67C0B1" points="1955.889,633.731 1933.993,595.808 1912.098,633.731 "/>
<g>
	<defs>
		<rect id="SVGID_38_" x="505.818" y="723.068" width="5.076" height="122.074"/>
	</defs>
	<clipPath id="SVGID_39_">
		<use xlink:href="#SVGID_38_"  overflow="visible"/>
	</clipPath>
	
		<linearGradient id="SVGID_40_" gradientUnits="userSpaceOnUse" x1="0.0029" y1="1440.0049" x2="1.0029" y2="1440.0049" gradientTransform="matrix(0 -46.5235 46.5235 0 -66485.7422 841.2813)">
		<stop  offset="0" style="stop-color:#FFFFFF"/>
		<stop  offset="0.2332" style="stop-color:#DCCFC5"/>
		<stop  offset="0.4964" style="stop-color:#B99E8A"/>
		<stop  offset="0.7213" style="stop-color:#A07B5F"/>
		<stop  offset="0.8963" style="stop-color:#906545"/>
		<stop  offset="1" style="stop-color:#8A5D3B"/>
	</linearGradient>
	<rect x="505.818" y="723.068" clip-path="url(#SVGID_39_)" fill="url(#SVGID_40_)" width="5.076" height="122.074"/>
</g>
<polygon fill="#67C0B1" points="537.333,738.829 508.356,688.642 479.38,738.829 "/>
<polygon fill="#67C0B1" points="530.252,707.604 508.356,669.68 486.461,707.604 "/>
<g>
	<defs>
		<rect id="SVGID_41_" x="255.023" y="782.425" width="5.076" height="122.075"/>
	</defs>
	<clipPath id="SVGID_42_">
		<use xlink:href="#SVGID_41_"  overflow="visible"/>
	</clipPath>
	
		<linearGradient id="SVGID_43_" gradientUnits="userSpaceOnUse" x1="0.0029" y1="1440.0039" x2="1.0029" y2="1440.0039" gradientTransform="matrix(0 -46.5235 46.5235 0 -66736.4922 900.6563)">
		<stop  offset="0" style="stop-color:#FFFFFF"/>
		<stop  offset="0.2332" style="stop-color:#DCCFC5"/>
		<stop  offset="0.4964" style="stop-color:#B99E8A"/>
		<stop  offset="0.7213" style="stop-color:#A07B5F"/>
		<stop  offset="0.8963" style="stop-color:#906545"/>
		<stop  offset="1" style="stop-color:#8A5D3B"/>
	</linearGradient>
	<rect x="255.023" y="782.425" clip-path="url(#SVGID_42_)" fill="url(#SVGID_43_)" width="5.076" height="122.075"/>
</g>
<polygon fill="#67C0B1" points="286.537,798.187 257.561,747.998 228.584,798.187 "/>
<polygon fill="#67C0B1" points="279.457,766.961 257.561,729.037 235.666,766.961 "/>
<g>
	<defs>
		<rect id="SVGID_44_" x="922.971" y="700.462" width="3.945" height="94.873"/>
	</defs>
	<clipPath id="SVGID_45_">
		<use xlink:href="#SVGID_44_"  overflow="visible"/>
	</clipPath>
	
		<linearGradient id="SVGID_46_" gradientUnits="userSpaceOnUse" x1="0.0034" y1="1440.0039" x2="1.0034" y2="1440.0039" gradientTransform="matrix(0 -36.1565 36.1565 0 -51140.543 792.3125)">
		<stop  offset="0" style="stop-color:#FFFFFF"/>
		<stop  offset="0.2332" style="stop-color:#DCCFC5"/>
		<stop  offset="0.4964" style="stop-color:#B99E8A"/>
		<stop  offset="0.7213" style="stop-color:#A07B5F"/>
		<stop  offset="0.8963" style="stop-color:#906545"/>
		<stop  offset="1" style="stop-color:#8A5D3B"/>
	</linearGradient>
	<rect x="922.971" y="700.462" clip-path="url(#SVGID_45_)" fill="url(#SVGID_46_)" width="3.945" height="94.873"/>
</g>
<polygon fill="#67C0B1" points="947.463,712.712 924.944,673.708 902.425,712.712 "/>
<polygon fill="#67C0B1" points="941.96,688.445 924.944,658.972 907.927,688.445 "/>
<g>
	<defs>
		<rect id="SVGID_47_" x="1073.208" y="699.551" width="3.945" height="94.873"/>
	</defs>
	<clipPath id="SVGID_48_">
		<use xlink:href="#SVGID_47_"  overflow="visible"/>
	</clipPath>
	
		<linearGradient id="SVGID_49_" gradientUnits="userSpaceOnUse" x1="0.0039" y1="1440.0039" x2="1.0039" y2="1440.0039" gradientTransform="matrix(0 -36.1565 36.1565 0 -50990.293 791.4219)">
		<stop  offset="0" style="stop-color:#FFFFFF"/>
		<stop  offset="0.2332" style="stop-color:#DCCFC5"/>
		<stop  offset="0.4964" style="stop-color:#B99E8A"/>
		<stop  offset="0.7213" style="stop-color:#A07B5F"/>
		<stop  offset="0.8963" style="stop-color:#906545"/>
		<stop  offset="1" style="stop-color:#8A5D3B"/>
	</linearGradient>
	<rect x="1073.208" y="699.551" clip-path="url(#SVGID_48_)" fill="url(#SVGID_49_)" width="3.945" height="94.873"/>
</g>
<polygon fill="#67C0B1" points="1097.7,711.8 1075.181,672.796 1052.662,711.8 "/>
<polygon fill="#67C0B1" points="1092.197,687.533 1075.182,658.06 1058.165,687.533 "/>
<g>
	<defs>
		<rect id="SVGID_50_" x="2167.121" y="716.604" width="6.42" height="154.399"/>
	</defs>
	<clipPath id="SVGID_51_">
		<use xlink:href="#SVGID_50_"  overflow="visible"/>
	</clipPath>
	
		<linearGradient id="SVGID_52_" gradientUnits="userSpaceOnUse" x1="-0.0024" y1="1439.9951" x2="0.9976" y2="1439.9951" gradientTransform="matrix(0 -58.8423 58.8423 0 -82562.2891 865.8125)">
		<stop  offset="0" style="stop-color:#FFFFFF"/>
		<stop  offset="0.2332" style="stop-color:#DCCFC5"/>
		<stop  offset="0.4964" style="stop-color:#B99E8A"/>
		<stop  offset="0.7213" style="stop-color:#A07B5F"/>
		<stop  offset="0.8963" style="stop-color:#906545"/>
		<stop  offset="1" style="stop-color:#8A5D3B"/>
	</linearGradient>
	<rect x="2167.121" y="716.604" clip-path="url(#SVGID_51_)" fill="url(#SVGID_52_)" width="6.42" height="154.399"/>
</g>
<polygon fill="#67C0B1" points="2206.98,736.539 2170.332,673.062 2133.683,736.539 "/>
<polygon fill="#67C0B1" points="2222.574,789.349 2170.332,698.863 2118.09,789.349 "/>
<polygon fill="#67C0B1" points="2198.024,697.045 2170.332,649.08 2142.639,697.045 "/>
<polygon fill="#67C0B1" points="2189.99,666.104 2170.332,632.054 2150.673,666.104 "/>
<g>
	<defs>
		<rect id="SVGID_53_" x="1741.756" y="654.97" width="6.42" height="154.399"/>
	</defs>
	<clipPath id="SVGID_54_">
		<use xlink:href="#SVGID_53_"  overflow="visible"/>
	</clipPath>
	
		<linearGradient id="SVGID_55_" gradientUnits="userSpaceOnUse" x1="-0.0039" y1="1439.9961" x2="0.9961" y2="1439.9961" gradientTransform="matrix(0 -58.8423 58.8423 0 -82987.7578 804.0938)">
		<stop  offset="0" style="stop-color:#FFFFFF"/>
		<stop  offset="0.2332" style="stop-color:#DCCFC5"/>
		<stop  offset="0.4964" style="stop-color:#B99E8A"/>
		<stop  offset="0.7213" style="stop-color:#A07B5F"/>
		<stop  offset="0.8963" style="stop-color:#906545"/>
		<stop  offset="1" style="stop-color:#8A5D3B"/>
	</linearGradient>
	<rect x="1741.756" y="654.97" clip-path="url(#SVGID_54_)" fill="url(#SVGID_55_)" width="6.42" height="154.399"/>
</g>
<polygon fill="#67C0B1" points="1781.614,674.905 1744.967,611.428 1708.317,674.905 "/>
<polygon fill="#67C0B1" points="1797.208,727.715 1744.967,637.229 1692.724,727.715 "/>
<polygon fill="#67C0B1" points="1772.659,635.412 1744.966,587.446 1717.273,635.412 "/>
<polygon fill="#67C0B1" points="1764.625,604.471 1744.966,570.42 1725.308,604.471 "/>
<g>
	<defs>
		<rect id="SVGID_56_" x="849.528" y="655.729" width="5.579" height="134.171"/>
	</defs>
	<clipPath id="SVGID_57_">
		<use xlink:href="#SVGID_56_"  overflow="visible"/>
	</clipPath>
	
		<linearGradient id="SVGID_58_" gradientUnits="userSpaceOnUse" x1="-0.0029" y1="1439.998" x2="0.9971" y2="1439.998" gradientTransform="matrix(0 -51.1333 51.1333 0 -72779.5078 785.375)">
		<stop  offset="0" style="stop-color:#FFFFFF"/>
		<stop  offset="0.2332" style="stop-color:#DCCFC5"/>
		<stop  offset="0.4964" style="stop-color:#B99E8A"/>
		<stop  offset="0.7213" style="stop-color:#A07B5F"/>
		<stop  offset="0.8963" style="stop-color:#906545"/>
		<stop  offset="1" style="stop-color:#8A5D3B"/>
	</linearGradient>
	<rect x="849.528" y="655.729" clip-path="url(#SVGID_57_)" fill="url(#SVGID_58_)" width="5.579" height="134.171"/>
</g>
<polygon fill="#67C0B1" points="884.164,673.052 852.317,617.892 820.47,673.052 "/>
<polygon fill="#67C0B1" points="897.715,718.943 852.317,640.312 806.919,718.943 "/>
<polygon fill="#67C0B1" points="876.382,638.733 852.317,597.051 828.252,638.733 "/>
<polygon fill="#67C0B1" points="869.4,611.845 852.317,582.256 835.234,611.845 "/>
<g>
	<defs>
		<rect id="SVGID_59_" x="334.301" y="737.851" width="5.579" height="134.171"/>
	</defs>
	<clipPath id="SVGID_60_">
		<use xlink:href="#SVGID_59_"  overflow="visible"/>
	</clipPath>
	
		<linearGradient id="SVGID_61_" gradientUnits="userSpaceOnUse" x1="-0.0024" y1="1439.998" x2="0.9977" y2="1439.998" gradientTransform="matrix(0 -51.1333 51.1333 0 -73294.7266 867.5)">
		<stop  offset="0" style="stop-color:#FFFFFF"/>
		<stop  offset="0.2332" style="stop-color:#DCCFC5"/>
		<stop  offset="0.4964" style="stop-color:#B99E8A"/>
		<stop  offset="0.7213" style="stop-color:#A07B5F"/>
		<stop  offset="0.8963" style="stop-color:#906545"/>
		<stop  offset="1" style="stop-color:#8A5D3B"/>
	</linearGradient>
	<rect x="334.301" y="737.851" clip-path="url(#SVGID_60_)" fill="url(#SVGID_61_)" width="5.579" height="134.172"/>
</g>
<polygon fill="#67C0B1" points="368.938,755.175 337.091,700.014 305.244,755.175 "/>
<polygon fill="#67C0B1" points="382.489,801.065 337.091,722.434 291.693,801.065 "/>
<polygon fill="#67C0B1" points="361.156,720.854 337.091,679.173 313.026,720.854 "/>
<polygon fill="#67C0B1" points="354.174,693.968 337.091,664.378 320.008,693.968 "/>
<g>
	<defs>
		<rect id="SVGID_62_" x="1463.104" y="698.729" width="5.579" height="134.171"/>
	</defs>
	<clipPath id="SVGID_63_">
		<use xlink:href="#SVGID_62_"  overflow="visible"/>
	</clipPath>
	
		<linearGradient id="SVGID_64_" gradientUnits="userSpaceOnUse" x1="-0.0024" y1="1439.9961" x2="0.9974" y2="1439.9961" gradientTransform="matrix(0 -51.1333 51.1333 0 -72165.8828 828.375)">
		<stop  offset="0" style="stop-color:#FFFFFF"/>
		<stop  offset="0.2332" style="stop-color:#DCCFC5"/>
		<stop  offset="0.4964" style="stop-color:#B99E8A"/>
		<stop  offset="0.7213" style="stop-color:#A07B5F"/>
		<stop  offset="0.8963" style="stop-color:#906545"/>
		<stop  offset="1" style="stop-color:#8A5D3B"/>
	</linearGradient>
	<rect x="1463.104" y="698.729" clip-path="url(#SVGID_63_)" fill="url(#SVGID_64_)" width="5.579" height="134.171"/>
</g>
<polygon fill="#67C0B1" points="1497.74,716.052 1465.894,660.892 1434.047,716.052 "/>
<polygon fill="#67C0B1" points="1511.291,761.943 1465.894,683.312 1420.495,761.943 "/>
<polygon fill="#67C0B1" points="1489.959,681.733 1465.894,640.051 1441.828,681.733 "/>
<polygon fill="#67C0B1" points="1482.977,654.845 1465.894,625.256 1448.811,654.845 "/>
</svg>
